<?xml version="1.0" encoding="UTF-8"?>
<svg id="Laag_1" xmlns="http://www.w3.org/2000/svg" version="1.1" viewBox="0 0 561.26 841.89">
  <!-- Generator: Adobe Illustrator 29.5.1, SVG Export Plug-In . SVG Version: 2.1.0 Build 141)  -->
  <defs>
    <style>
      .st0 {
        fill: #1d1d1b;
        font-family: MyriadPro-Regular, 'Myriad Pro';
        font-size: 27.68px;
      }

      .st1 {
        fill: #fcfdfe;
      }

      .st2 {
        fill: #e6332e;
      }

      .st3, .st4 {
        fill: #fff;
      }

      .st5 {
        fill: #fdcd09;
      }

      .st6 {
        fill: #fdfefe;
      }

      .st7 {
        fill: #2e71b8;
      }

      .st4 {
        font-family: PTSerif-Caption, 'PT Serif Caption';
        font-size: 109.37px;
      }

      .st8 {
        fill: #12416f;
      }
    </style>
  </defs>
  <g id="x6Iis4">
    <g>
      <path class="st7" d="M561.26,0v841.89H0V0h561.26ZM121.13,71.25v-13.98c-.35-.58-.77-.68-1.39-.81-7.36-1.49-19.23-2.51-26.82-2.78-22.34-.79-41.57,5.17-39.2,31.53,2.35,26.18,34.63,19.56,49.15,28.68,7.19,4.51,7.15,17.11,0,21.59-11.89,7.45-34.38.44-47.52-1.2-.47,4.55-1.26,9.11-1.09,13.7,19.79,3.6,51.29,10.58,65.75-7.96,7.12-9.13,7.08-26.57-1.09-35.06-10.86-11.3-40.45-9.33-46.82-18.4-3.95-5.63-2.16-12.63,3.71-15.95,12.49-7.07,31.86-1,45.31.64ZM218.15,150.18l-34.9-49.61,31.34-44.67h-20.01l-.85,2.15-29.3,43.34v-45.49h-16.99v94.27h16.99v-48.23l33.71,48.23h20.01ZM284.36,116.36c-26.41,2.47-45.43,28.7-39.63,54.65,8.06,36.02,53.91,47.06,78.39,19.74,27.6-30.81,1.2-78.13-38.76-74.39ZM350.79,228.02c-.29-.44-8.92-2.77-10.15-2.79-24.44-.4-49.51.36-73.99.48-10.66.05-23.98-2.55-33.85,2.43-4.06,2.05-13.26,9.88-15.1,14-.59,1.32-.29,4.45-.85,5.79-1.82,4.35-3.01,6.28-4.48,11.31-3.94,13.51-8.94,27.59-12.48,41.24-.96,3.71-1.47,5.02-1.48,8.89,0,.37-.88.32-1.09.71-2.42,4.48-1.76,6.56-2.79,10.8-4.25,17.5-11.8,36.63-16.8,53.9-.38,1.3-1.95,7.71-1.54,8.36s6.21,3.02,7.32,3.17c14.39,1.87,24.6-5.11,33.9-14.88,5.31-5.58,11.13-11.82,16.81-17.88,8.45-9.01,17.56-18.17,25.59-27.55,1.1-1.28,3.13-3.96,4.08-4.84,1.55-1.43,5.52-2.15,4.14-4.9l1.64.55c-.46-3.25,2.63-3.54,3.66-4.57.61-.61,4.95-5.76,5.11-6.13.92-2.12-2.39.83-2.73,0,1.25-1.41,3.27-1.28,4.67-2.45,2.45-2.06,5.94-6.66,8.19-8.8s6.89-5.18,8.81-7.62,1.34-2.22,3.77-4.47c1.86-1.72,9.09-8.59,10.15-10.25,1.18-1.85-.21-.92-.46-1.25-1.17-1.57,4.5-2.79,5.09-3.22.2-.15,2.38-3.93,2.69-4.24.51-.5,2.98-1.63,3.68-2.65l-1.64-.81,3.83-1.11c.16-.92-.68-.45-1.26-.53-1.88-.27,1.04-1.67,1.27-1.9,2.37-2.38,4.75-5.6,7.28-7.81,1.28-1.12,8.47-4.87,3.68-4.28,1.31-1.37,2.23-2.82,4.39-2.47l-2.19-.82c5.21-3.14,8.84-8.06,13.7-11.52-1.99-.32-.23-1.44-.54-1.91ZM425.16,230.92c-.46-.4-1.03-.65-1.66-.58-1.61.2-14.99,10.2-17.53,12.02-41.16,29.34-81.48,59.97-122.07,90.05-26.82,31.19,16.33,68.99,44.43,40.04,32.62-46.13,66.21-91.62,98.01-138.28.3-.95-.47-2.65-1.18-3.25ZM308.04,388.06h-8.5c-9.88,0-23.45-12.93-27-21.78-.8-1.99-1.95-7.94-2.6-8.91-.56-.83-.69-.48-1.37-.27-2.14.64-4.43,5.65-5.8,7.35-5.67,7.09-11.01,14.27-16.43,21.39-2.84,3.72-7.83,8.77-9.7,12.67-2.07,4.32-15.42,19.05-19.81,24.68-21.19,27.17-42.25,55.02-63.09,82.74.51,1.71-.8,2.75-.85,4.06-.14,3.38,2.52,5.93,5.81,6.13l45.78-36.25c.2-3,.34-1.32,1.77-2.43,8.41-6.5,16.59-14.35,24.69-21.22,2.95-2.5,7.33-7.05,9.94-8.98.97-.72,2.36-.73,3.33-1.6.89-.79,1.14-2.42,1.47-2.64.42-.29,1.48-.09,2.37-.63,1.53-.95,3.69-3.87,5.22-5.18,16.98-14.42,34.14-28.64,50.43-43.86,1.68-1.57,4.96-2.1,4.34-5.26ZM343.6,396.37c-.65-.56-7.3,4.71-8.42,5.41-27.89,23.84-54.31,49.13-81.68,73.44-1.37,1.22-2.75.52-3,3.08-.18,1.89.93,1.13,1.56,2.17.91,1.48,1.31,3.93,2.15,5.55,5.38,10.34,11.81,20.62,17.54,30.69,9.17,16.13,17.73,33.05,26.85,49.33,2.43,4.34,5.2,10.13,8.09,13.83,4.07,5.19,8.71,4.77,13.66,1.12.62-3.39,2.51-6.55,3.34-9.82.5-2,.63-2.37,1.22-4.25s-.32-4.96.12-6.91c.1-.44,1.05-.33,1.38-1.44,1.73-5.87,3.02-16.39,4.22-22.65,4.44-23.11,10.26-46.64,15.06-69.35.58-2.76,1.58-12.33,2.37-13.94.33-.68,1.32-.65,1.54-1.32.94-2.85-.47-4.89-.5-6.48,0-.43,1.28-.33,1.59-1.2.71-1.99,1.08-6.8,1.64-9.33,1.01-4.54,2.02-9.07,3.09-13.9,1.37-6.2,4.37-11.01,1.06-17.47-1.8-3.51-8.93-8.86-12.56-5.53-.51.03-.14-.85-.33-1.01ZM210.47,617.44c-.33,2.44.24,5.44,0,7.95l-7.13.32v6.81c1.37.23,6.74-.67,7,.8l-.41,32.09h9.87v-32.89h13.15v-7.13h-13.15c-.47-10.75,5.1-11.79,14.25-9.32l-.05-7.07c-8.17-2.19-22.02-2.63-23.51,8.44ZM250.48,607.85h-9.32v57.55h9.32v-19.73c2.72,1.73,14.89,19.73,16.17,19.73h10.69l-16.4-21.03,16.95-18.98h-10.69c-1.23,0-14.15,16.44-16.72,18.09v-35.63ZM145.64,608.52c-4.8,1.1-5.15,9.97-.65,10.83,2.58.49,8.36.35,9.02-3.01,1.12-5.79-2.68-9.12-8.37-7.82ZM95.92,612.78c-14.82-3.28-42.64-6.51-39.95,16.66,1.87,16.07,20.98,11.13,29.93,16.11,3.36,1.87,3.37,8.44.95,11.05-4.74,5.1-22.83,2.11-29.29.58.56,1.78-1.28,6.33-.47,7.6.23.36,7.26,1.57,8.43,1.71,14.04,1.72,34.95,1.12,33.15-18.35-1.31-14.2-16.53-12.35-26.31-15.34-6.79-2.08-8.79-9.36-2.69-12.55,7.68-4.01,18.3-.92,26.26.75v-8.22ZM121.68,614.43h-9.87v10.96l-7.13.32v6.81s7.13,0,7.13,0v24.94c0,.67,1.1,3.7,1.53,4.5,2.57,4.7,8.83,4.93,13.53,4.54,1.05-.09,6.24-1.07,6.62-1.6.75-1.08-.04-5.08.24-6.61-2.51,1.48-12.06,2.06-12.06-1.92v-23.84h12.06v-7.13h-12.06v-10.96ZM172.38,648.41c7.75,1.06,17.76-.79,25.76,0,1.78,0,.45-10.36.02-12.08-2.57-10.33-12.25-12.56-21.8-11.35-8.86,1.12-14.4,7.89-15.2,16.59-2.37,25.73,14.86,28.16,35.62,23.29v-7.67c-10.36,3.32-25.39,6.24-25.21-9.32.2-.28.66.53.82.55ZM297.5,624.99c-14.18,1.69-17.41,15.19-15.09,27.39,2.04,10.73,9.97,14.94,20.43,14.69,12.79-.3,18.85-7.6,19.13-20.04.37-16.54-7.95-24.02-24.48-22.04ZM390.25,665.4v-28.23c0-1.89-1.36-6.26-2.5-7.91-4.63-6.68-18.71-5.7-23.53.5-3.72-5.11-8.75-5.49-14.73-4.86-2.31.24-8.46,2.86-9.32,2.71-.7-.12-.77-2.23-.89-2.23h-8.22v40.01h9.32v-29.87c0-1.86,11.26-3.93,14.02-1.96.59.42,1.88,3.59,1.88,4.15v27.68h9.32v-30.69c3.63-1.1,9.45-3.59,12.89-1.11.45.32,1.91,2.15,1.91,2.48v29.32h9.87ZM410.53,664.85c8.19,2.58,18.84,3.32,24.65-4.12s5.83-24.53-.26-31.51c-3.98-4.56-9.03-4.89-14.8-4.37-2.25.2-9.32,2.85-9.82,2.77-.68-.11-.76-2.23-.88-2.23h-8.22v55.91h9.32v-16.44ZM481.78,665.4v-29.87c0-.29-1.15-3.52-1.42-4.06-3.64-7.26-13.71-7.2-20.77-6.62-1.55.13-9.15,1.41-9.53,2.53-.55,1.62.24,4.91-.07,6.78,8.01-1.86,22.52-6.62,22.4,6.27-.2,1.41-9.86.7-11.71.86-9.06.81-15.94,6.22-14.4,16.03,1.78,11.4,15.3,10.83,23.45,6.72.72-.36,1.56-1.25,1.91-1.38,1.43-.55.46,2.73,1.64,2.73h8.5ZM521.25,626.48c-8.98-1.72-26.93-4.95-30.43,6.57-2.57,8.47,1.32,13.8,9.58,15.65,2.86.64,12.24.84,13.32,3.12s.76,5.73-1.59,6.93c-1.96,1-7.87.79-10.33.61-1.96-.14-9.91-2.18-10.44-2.1-1.1.19-1.08,6.98-.73,7.51,1.03,1.6,18.48,2.2,21.51,1.65,9.02-1.64,13.92-8.54,10.64-17.63s-15.61-5.43-21.22-8.93c-2.42-1.51-2.61-5.8-.26-7.31,4.33-2.79,15.1.51,19.95,1.59v-7.67ZM152.92,625.94h-9.32v39.46h9.32v-39.46Z"/>
      <path class="st5" d="M350.79,228.02c.31.47-1.45,1.59.54,1.91-4.86,3.46-8.49,8.37-13.7,11.52l2.19.82c-2.15-.35-3.07,1.1-4.39,2.47,4.8-.59-2.4,3.16-3.68,4.28-2.53,2.22-4.91,5.43-7.28,7.81-.23.23-3.15,1.62-1.27,1.9.57.08,1.41-.39,1.26.53l-3.83,1.11,1.64.81c-.7,1.02-3.17,2.15-3.68,2.65-.31.31-2.49,4.09-2.69,4.24-.59.43-6.26,1.64-5.09,3.22.25.33,1.64-.6.46,1.25-1.06,1.65-8.29,8.53-10.15,10.25-2.43,2.25-1.89,2.09-3.77,4.47s-6.46,5.39-8.81,7.62-5.74,6.74-8.19,8.8c-1.4,1.18-3.42,1.04-4.67,2.45.34.82,3.66-2.13,2.73,0-.16.37-4.5,5.52-5.11,6.13-1.03,1.03-4.12,1.32-3.66,4.57l-1.64-.55c1.38,2.75-2.6,3.47-4.14,4.9-.95.88-2.98,3.56-4.08,4.84-8.03,9.38-17.14,18.54-25.59,27.55-5.68,6.06-11.49,12.3-16.81,17.88-9.3,9.77-19.51,16.75-33.9,14.88-1.1-.14-6.91-2.51-7.32-3.17s1.17-7.06,1.54-8.36c5.01-17.27,12.56-36.41,16.8-53.9,1.03-4.24.37-6.32,2.79-10.8.21-.39,1.09-.34,1.09-.71,0-3.87.51-5.17,1.48-8.89,3.54-13.65,8.54-27.73,12.48-41.24,1.47-5.03,2.67-6.97,4.48-11.31.56-1.34.26-4.47.85-5.79,1.83-4.12,11.04-11.95,15.1-14,9.88-4.98,23.19-2.38,33.85-2.43,24.48-.12,49.55-.88,73.99-.48,1.24.02,9.86,2.35,10.15,2.79Z"/>
      <path class="st8" d="M343.6,396.37c.19.16-.18,1.04.33,1.01,3.62-3.33,10.76,2.02,12.56,5.53,3.3,6.45.31,11.26-1.06,17.47-1.07,4.84-2.09,9.36-3.09,13.9-.56,2.54-.93,7.34-1.64,9.33-.31.87-1.6.77-1.59,1.2.03,1.6,1.45,3.63.5,6.48-.22.67-1.21.64-1.54,1.32-.79,1.61-1.78,11.18-2.37,13.94-4.8,22.71-10.63,46.24-15.06,69.35-1.2,6.26-2.49,16.78-4.22,22.65-.33,1.11-1.28,1.01-1.38,1.44-.43,1.95.48,5-.12,6.91s-.72,2.26-1.22,4.25c-.83,3.27-2.72,6.43-3.34,9.82-4.94,3.65-9.58,4.08-13.66-1.12-2.9-3.69-5.66-9.49-8.09-13.83-9.12-16.28-17.68-33.2-26.85-49.33-5.73-10.07-12.16-20.36-17.54-30.69-.84-1.62-1.24-4.06-2.15-5.55-.63-1.03-1.75-.28-1.56-2.17.25-2.56,1.63-1.86,3-3.08,27.37-24.3,53.79-49.6,81.68-73.44,1.12-.7,7.76-5.97,8.42-5.41Z"/>
      <path class="st2" d="M425.16,230.92c.71.6,1.48,2.3,1.18,3.25-31.8,46.66-65.39,92.15-98.01,138.28-28.09,28.95-71.25-8.86-44.43-40.04,40.59-30.08,80.91-60.7,122.07-90.05,2.55-1.82,15.92-11.82,17.53-12.02.62-.08,1.19.18,1.66.58Z"/>
      <path class="st5" d="M284.36,116.36c39.96-3.74,66.36,43.57,38.76,74.39-24.47,27.32-70.33,16.29-78.39-19.74-5.8-25.94,13.22-52.17,39.63-54.65Z"/>
      <path class="st8" d="M308.04,388.06c.62,3.15-2.66,3.69-4.34,5.26-16.3,15.22-33.45,29.45-50.43,43.86-1.54,1.31-3.69,4.23-5.22,5.18-.88.54-1.95.35-2.37.63-.33.22-.59,1.85-1.47,2.64-.97.87-2.36.89-3.33,1.6-2.6,1.92-6.99,6.47-9.94,8.98-8.1,6.87-16.28,14.73-24.69,21.22-1.43,1.11-1.58-.58-1.77,2.43l-45.78,36.25c-3.29-.2-5.94-2.74-5.81-6.13.05-1.31,1.36-2.35.85-4.06,20.84-27.72,41.9-55.56,63.09-82.74,4.4-5.64,17.74-20.37,19.81-24.68,1.87-3.9,6.86-8.95,9.7-12.67,5.42-7.11,10.77-14.3,16.43-21.39,1.36-1.7,3.66-6.71,5.8-7.35.68-.2.81-.56,1.37.27.65.97,1.8,6.91,2.6,8.91,3.55,8.85,17.12,21.78,27,21.78h8.5Z"/>
      <polygon class="st6" points="218.15 150.18 198.14 150.18 164.43 101.95 164.43 150.18 147.44 150.18 147.44 55.91 164.43 55.91 164.43 101.4 193.73 58.06 194.58 55.91 214.58 55.91 183.24 100.57 218.15 150.18"/>
      <path class="st6" d="M121.13,71.25c-13.45-1.64-32.82-7.71-45.31-.64-5.86,3.32-7.66,10.32-3.71,15.95,6.37,9.07,35.96,7.1,46.82,18.4,8.16,8.49,8.21,25.93,1.09,35.06-14.46,18.53-45.97,11.56-65.75,7.96-.16-4.58.63-9.15,1.09-13.7,13.14,1.64,35.63,8.65,47.52,1.2,7.15-4.48,7.19-17.08,0-21.59-14.52-9.12-46.8-2.5-49.15-28.68-2.37-26.36,16.87-32.32,39.2-31.53,7.58.27,19.46,1.29,26.82,2.78.62.12,1.04.22,1.39.81v13.98Z"/>
      <path class="st1" d="M390.25,665.4h-9.87v-29.32c0-.33-1.46-2.16-1.91-2.48-3.44-2.48-9.26,0-12.89,1.11v30.69h-9.32v-27.68c0-.56-1.29-3.73-1.88-4.15-2.76-1.97-14.02.09-14.02,1.96v29.87h-9.32v-40.01h8.22c.12,0,.19,2.12.89,2.23.86.14,7.01-2.47,9.32-2.71,5.98-.63,11.01-.25,14.73,4.86,4.83-6.21,18.91-7.18,23.53-.5,1.14,1.65,2.5,6.02,2.5,7.91v28.23Z"/>
      <path class="st1" d="M95.92,612.78v8.22c-7.97-1.67-18.59-4.76-26.26-.75-6.1,3.19-4.1,10.47,2.69,12.55,9.78,2.99,25,1.14,26.31,15.34,1.8,19.47-19.1,20.07-33.15,18.35-1.17-.14-8.2-1.35-8.43-1.71-.8-1.27,1.03-5.82.47-7.6,6.46,1.53,24.55,4.53,29.29-.58,2.42-2.6,2.4-9.18-.95-11.05-8.94-4.99-28.06-.05-29.93-16.11-2.69-23.17,25.13-19.94,39.95-16.66Z"/>
      <path class="st1" d="M410.53,664.85v16.44h-9.32v-55.91h8.22c.12,0,.2,2.12.88,2.23.5.08,7.57-2.57,9.82-2.77,5.76-.52,10.82-.19,14.8,4.37,6.09,6.98,5.9,24.28.26,31.51s-16.46,6.7-24.65,4.12ZM410.53,658.27c11.92,3.45,19.24.25,19.24-12.88,0-13.84-7.82-14.99-19.24-10.69v23.57Z"/>
      <path class="st1" d="M250.48,607.85v35.63c2.56-1.65,15.49-18.09,16.72-18.09h10.69l-16.95,18.98,16.4,21.03h-10.69c-1.28,0-13.45-18-16.17-19.73v19.73h-9.32v-57.55h9.32Z"/>
      <path class="st1" d="M172.38,648.41c-.15-.02-.62-.83-.82-.55-.19,15.56,14.85,12.63,25.21,9.32v7.67c-20.76,4.87-37.99,2.45-35.62-23.29.8-8.69,6.35-15.46,15.2-16.59,9.55-1.21,19.23,1.02,21.8,11.35.43,1.72,1.76,12.08-.02,12.08-8-.79-18.01,1.06-25.76,0ZM189.1,641.83c.89-14.34-17.69-13.42-17.54,0h17.54Z"/>
      <path class="st1" d="M481.78,665.4h-8.5c-1.17,0-.21-3.28-1.64-2.73-.35.13-1.19,1.02-1.91,1.38-8.15,4.1-21.67,4.68-23.45-6.72-1.54-9.81,5.34-15.22,14.4-16.03,1.84-.16,11.51.55,11.71-.86.12-12.89-14.39-8.13-22.4-6.27.31-1.87-.48-5.16.07-6.78.38-1.12,7.98-2.4,9.53-2.53,7.06-.58,17.13-.64,20.77,6.62.27.54,1.42,3.77,1.42,4.06v29.87ZM472.47,647.86c-5.98-.35-16.51-1.98-16.49,6.85s16.49,3.13,16.49,1.64v-8.5Z"/>
      <path class="st1" d="M297.5,624.99c16.53-1.97,24.85,5.51,24.48,22.04-.28,12.43-6.34,19.74-19.13,20.04-10.46.25-18.39-3.96-20.43-14.69-2.32-12.2.91-25.7,15.09-27.39ZM301.82,631.63c-8.7.14-10.52,8.17-10.25,15.43.29,7.65,2.64,13.28,11.27,12.88,5.23-.24,7.83-3.19,8.9-8.1,1.77-8.11.87-20.38-9.92-20.21Z"/>
      <path class="st1" d="M521.25,626.48v7.67c-4.85-1.09-15.62-4.39-19.95-1.59-2.34,1.51-2.15,5.8.26,7.31,5.61,3.5,17.95-.11,21.22,8.93s-1.62,15.99-10.64,17.63c-3.04.55-20.48-.04-21.51-1.65-.34-.54-.37-7.32.73-7.51.52-.09,8.48,1.95,10.44,2.1,2.46.18,8.37.39,10.33-.61,2.36-1.2,2.63-4.74,1.59-6.93s-10.46-2.48-13.32-3.12c-8.26-1.85-12.15-7.18-9.58-15.65,3.5-11.52,21.45-8.29,30.43-6.57Z"/>
      <path class="st6" d="M210.47,617.44c1.49-11.07,15.34-10.64,23.51-8.44l.05,7.07c-9.15-2.47-14.72-1.43-14.25,9.32h13.15v7.13h-13.15v32.89h-9.87l.41-32.09c-.26-1.47-5.62-.56-6.99-.8v-6.81s7.13-.32,7.13-.32c.24-2.51-.33-5.51,0-7.95Z"/>
      <path class="st1" d="M121.68,614.43v10.96h12.06v7.13h-12.06v23.84c0,3.98,9.55,3.4,12.06,1.92-.28,1.53.51,5.53-.24,6.61-.38.54-5.57,1.52-6.62,1.6-4.7.4-10.97.16-13.53-4.54-.43-.79-1.53-3.82-1.53-4.5v-24.94h-7.13s0-6.81,0-6.81l7.13-.32v-10.96h9.87Z"/>
      <rect class="st6" x="143.6" y="625.94" width="9.32" height="39.46"/>
      <path class="st1" d="M145.64,608.52c5.68-1.3,9.48,2.03,8.37,7.82-.65,3.37-6.43,3.51-9.02,3.01-4.5-.86-4.15-9.74.65-10.83Z"/>
      <path class="st7" d="M410.53,658.27v-23.57c11.41-4.3,19.23-3.15,19.24,10.69,0,13.13-7.32,16.33-19.24,12.88Z"/>
      <path class="st7" d="M189.1,641.83h-17.54c-.15-13.42,18.43-14.34,17.54,0Z"/>
      <path class="st7" d="M472.47,647.86v8.5c0,1.49-16.47,7.04-16.49-1.64s10.51-7.2,16.49-6.85Z"/>
      <path class="st7" d="M301.82,631.63c10.79-.17,11.68,12.1,9.92,20.21-1.07,4.91-3.67,7.86-8.9,8.1-8.63.4-10.98-5.23-11.27-12.88s1.55-15.3,10.25-15.43Z"/>
    </g>
  </g>
  <rect class="st7" x="18.13" y="15.5" width="200.57" height="154.14"/>
  <rect class="st7" x="27.41" y="589.35" width="506.99" height="172.71"/>
  <text class="st0" transform="translate(-1358.82 691.63)"><tspan x="0" y="0">Stiefkompas® – De methode die samengestelde gezinnen weer richting geeft.</tspan></text>
  <text class="st4" transform="translate(41.63 143.26)"><tspan x="0" y="0">SK</tspan></text>
  <g>
    <path class="st3" d="M31.85,631.24c.21.21.5.4.88.58.38.18.88.27,1.5.27,1.04,0,1.9-.27,2.59-.81.69-.54,1.03-1.29,1.03-2.25,0-.7-.22-1.28-.66-1.75-.44-.47-1-.91-1.68-1.3-.68-.4-1.41-.79-2.18-1.17-.77-.39-1.5-.84-2.18-1.37-.68-.53-1.24-1.15-1.68-1.88-.44-.73-.66-1.63-.66-2.7,0-.92.17-1.73.51-2.41s.81-1.24,1.4-1.68c.59-.44,1.3-.77,2.11-.99.81-.22,1.69-.33,2.63-.33,1.15,0,2.22.08,3.21.24.99.16,1.88.41,2.67.75-.02.38-.05.81-.1,1.3-.05.49-.11.98-.18,1.46-.08.48-.16.93-.24,1.36-.08.42-.17.78-.24,1.06h-1.16l-1.31-3.88c-.23-.11-.56-.22-1.01-.31-.44-.09-.9-.14-1.38-.14-.8,0-1.47.21-2.02.62-.55.42-.82,1.02-.82,1.81,0,.72.23,1.33.68,1.82.45.5,1.02.96,1.7,1.37.68.42,1.42.83,2.23,1.23.8.41,1.55.87,2.23,1.4.68.53,1.25,1.15,1.7,1.85s.68,1.58.68,2.62c0,1.89-.64,3.34-1.91,4.37-1.27,1.03-3.15,1.54-5.62,1.54-.6,0-1.21-.04-1.82-.11-.61-.08-1.19-.18-1.74-.31-.55-.13-1.03-.27-1.46-.42-.42-.15-.74-.31-.95-.48.02-.43.07-.9.14-1.4.08-.5.16-1,.24-1.5.08-.5.17-.98.27-1.43.09-.45.19-.85.28-1.19h1.16l1.16,4.16Z"/>
    <path class="st3" d="M46.25,620.15c.72-.46,1.47-.79,2.26-.99v-2.29c.15-.11.52-.28,1.12-.5s1.26-.39,1.99-.52h.96v3.59h3.73v1.84h-3.73v7.29c0,1.16.15,1.97.44,2.42s.78.67,1.46.67c.34,0,.72-.02,1.15-.07s.82-.14,1.17-.27l.2.93c-.17.17-.42.35-.75.54-.33.19-.71.37-1.13.54s-.89.31-1.39.42c-.5.11-1.02.17-1.57.17-1.23,0-2.14-.32-2.74-.96s-.91-1.67-.91-3.1v-8.59h-2.26v-1.13Z"/>
    <path class="st3" d="M68.83,633.59h-7.81v-1.08c.28-.15.58-.28.88-.38.3-.1.63-.2.99-.3v-10.41l-1.87-.23v-1.08c.28-.11.64-.23,1.06-.34.42-.11.87-.21,1.34-.3.47-.08.93-.16,1.39-.23s.85-.12,1.19-.16h.96v12.73c.38.09.72.19,1.02.3.3.1.58.23.85.38v1.08ZM62.46,614.8c0-.66.22-1.18.67-1.56.45-.38,1.02-.57,1.73-.57s1.29.19,1.73.57c.45.38.67.9.67,1.56s-.22,1.15-.67,1.53c-.45.38-1.03.57-1.73.57s-1.29-.19-1.73-.57c-.45-.38-.67-.89-.67-1.53Z"/>
    <path class="st3" d="M86.11,631.21c-.15.32-.39.65-.72.98-.33.33-.74.62-1.22.88s-1.04.46-1.67.62c-.63.16-1.32.24-2.05.24-1.17,0-2.21-.17-3.11-.52s-1.66-.85-2.26-1.5c-.6-.65-1.06-1.43-1.37-2.33s-.47-1.92-.47-3.06c0-2.41.63-4.25,1.9-5.52,1.26-1.26,3.02-1.9,5.26-1.9.96,0,1.86.13,2.7.4.84.26,1.54.7,2.09,1.3.56.6.94,1.4,1.16,2.38s.2,2.18-.04,3.59h-8.68c.02,1.49.4,2.68,1.15,3.56.74.89,1.84,1.33,3.3,1.33.62,0,1.27-.09,1.94-.28.67-.19,1.19-.43,1.57-.74l.54.57ZM80.27,620.72c-.38,0-.71.07-1,.2-.29.13-.54.37-.76.72-.22.35-.39.82-.52,1.41-.13.59-.23,1.34-.28,2.25h4.53c.13-1.47.05-2.6-.25-3.39-.3-.79-.87-1.19-1.72-1.19Z"/>
    <path class="st3" d="M99.46,612.31c.77,0,1.47.07,2.08.21.61.14,1.08.28,1.4.41-.06.62-.18,1.26-.37,1.92s-.36,1.21-.51,1.64h-.96l-1.24-2.69c-.49,0-.9.05-1.23.16s-.59.31-.79.61c-.2.3-.34.73-.44,1.29-.09.56-.14,1.28-.14,2.16v1.41h3v1.84h-3v10.55c.98.11,1.89.34,2.72.68v1.08h-8.66v-1.08c.58-.34,1.21-.56,1.87-.68v-10.55h-2.15v-1.13c.66-.43,1.38-.75,2.15-.96v-.99c0-1.17.16-2.14.5-2.9.33-.76.78-1.37,1.34-1.81.57-.44,1.23-.75,1.99-.92s1.58-.25,2.45-.25Z"/>
    <path class="st3" d="M112.84,619.44h6.62v1.08c-.36.15-.69.28-1,.4-.31.11-.66.21-1.03.28-.28.38-.59.75-.92,1.12-.33.37-.66.73-.99,1.07-.33.34-.65.67-.95.98-.3.31-.58.59-.82.84.28.38.61.83.99,1.36.38.53.78,1.09,1.22,1.69.43.6.89,1.2,1.37,1.82s.97,1.2,1.46,1.75l1.44.68v1.08h-4.78l-.76-.68c-.43-.58-.82-1.13-1.15-1.64-.33-.51-.63-1-.89-1.47-.26-.47-.52-.93-.76-1.37-.25-.44-.49-.88-.74-1.32l-.93-.28v5c.32.06.61.14.88.26.26.11.55.26.85.43v1.08h-7.67v-1.08c.62-.3,1.24-.53,1.87-.68v-17.2l-2.15-.23v-1.08c.26-.11.62-.23,1.08-.34s.93-.21,1.44-.3,1.01-.16,1.5-.23c.49-.07.91-.12,1.25-.16h.96v13.27h.74c.62-.66,1.2-1.39,1.74-2.19.54-.8,1.01-1.53,1.43-2.19-.25-.08-.47-.17-.67-.28-.2-.11-.4-.25-.61-.4v-1.08Z"/>
    <path class="st3" d="M123.93,626.52c0-1.15.17-2.18.52-3.1.35-.91.85-1.69,1.5-2.33.65-.64,1.44-1.13,2.36-1.47.92-.34,1.97-.51,3.14-.51,1.32,0,2.46.18,3.41.55.95.37,1.73.88,2.35,1.53.61.65,1.06,1.43,1.34,2.35s.42,1.91.42,2.98c0,1.15-.17,2.18-.51,3.1-.34.92-.83,1.69-1.48,2.33-.65.64-1.44,1.13-2.38,1.47-.93.34-1.99.51-3.15.51-1.28,0-2.4-.18-3.34-.55-.94-.37-1.73-.88-2.35-1.53-.62-.65-1.08-1.43-1.39-2.35-.3-.91-.45-1.91-.45-2.98ZM128.32,626.52c0,.85.05,1.63.16,2.33.1.71.29,1.31.55,1.8.26.49.62.87,1.07,1.15s1.04.41,1.75.41c.41,0,.79-.1,1.13-.3.34-.2.63-.52.88-.96.24-.44.43-1.03.55-1.75.12-.73.18-1.62.18-2.67,0-.87-.05-1.65-.16-2.35-.1-.7-.28-1.29-.54-1.78-.25-.49-.6-.87-1.03-1.15-.43-.27-.98-.41-1.64-.41-.49,0-.92.1-1.27.3-.36.2-.66.52-.91.96-.25.44-.43,1.03-.55,1.75-.12.73-.18,1.62-.18,2.67Z"/>
    <path class="st3" d="M159.49,633.59h-7.07v-1.08c.19-.11.4-.23.64-.35.24-.12.49-.23.78-.33v-5.64c0-.87-.02-1.61-.07-2.21-.05-.61-.15-1.1-.3-1.49-.15-.39-.36-.67-.62-.85-.26-.18-.6-.27-1.02-.27-.6,0-1.13.23-1.57.69-.44.46-.77,1.07-.98,1.83v7.94c.51.15.98.38,1.41.68v1.08h-7.35v-1.08c.26-.13.56-.25.88-.37.32-.11.65-.22.99-.31v-10.41l-1.87-.23v-1.08c.3-.13.67-.25,1.12-.37.44-.11.9-.21,1.37-.3.47-.08.93-.16,1.37-.21.44-.06.82-.1,1.12-.14h.96v3.2h.03c.3-.89.83-1.64,1.6-2.26.76-.62,1.68-.93,2.76-.93.45,0,.9.05,1.33.14.43.09.83.27,1.2.52.37.25.68.61.95,1.06.26.45.45,1.04.57,1.75.34-1.04.91-1.88,1.7-2.52.79-.64,1.75-.96,2.89-.96.7,0,1.32.09,1.85.27.54.18.99.5,1.36.95.37.45.65,1.07.83,1.84.19.77.28,1.76.28,2.95v6.72c.64.11,1.26.34,1.87.68v1.08h-7.36v-1.08c.43-.28.91-.51,1.41-.68v-6.15c0-1.47-.14-2.56-.41-3.26-.27-.7-.86-1.05-1.77-1.05-.68,0-1.21.25-1.6.77-.39.51-.67,1.19-.86,2.04v7.66c.32.09.61.2.86.31.25.11.5.24.72.37v1.08Z"/>
    <path class="st3" d="M180.06,639.25h-7.81v-1.08c.64-.3,1.26-.53,1.87-.68v-16.06l-1.87-.23v-1.08c.3-.13.67-.25,1.12-.37.44-.11.9-.21,1.37-.3.47-.08.93-.16,1.37-.21.44-.06.82-.1,1.12-.14h.96v3.17h.03c.32-.91.82-1.66,1.51-2.26.69-.6,1.65-.91,2.87-.91.83,0,1.58.14,2.25.41.67.27,1.23.7,1.7,1.27.46.58.82,1.31,1.08,2.21.25.9.38,1.97.38,3.21s-.17,2.26-.5,3.23c-.33.96-.8,1.77-1.41,2.43s-1.36,1.17-2.23,1.53c-.88.36-1.87.54-2.98.54-.64,0-1.15-.04-1.51-.13-.37-.08-.76-.23-1.17-.44v4.13c.3.04.6.11.91.21s.62.26.96.47v1.08ZM180.96,621.37c-.64,0-1.21.23-1.71.68-.5.45-.85,1.15-1.06,2.09v7.52c.3.23.62.39.96.5s.78.16,1.33.16c1.08,0,1.87-.52,2.38-1.56.51-1.04.76-2.55.76-4.55,0-1.55-.19-2.74-.58-3.58-.39-.84-1.08-1.26-2.08-1.26Z"/>
    <path class="st3" d="M205.01,629.49c0,.42,0,.77.01,1.07,0,.3.03.62.07.96l1.95.28v.99c-.23.11-.53.23-.92.34-.39.11-.79.22-1.22.33s-.84.19-1.26.25c-.42.07-.78.12-1.1.16h-.96c-.19-.43-.3-.87-.34-1.3-.04-.43-.07-.96-.08-1.58h-.14c-.09.38-.25.74-.48,1.09-.23.35-.51.66-.86.93-.35.27-.76.5-1.23.67-.47.17-1,.25-1.58.25-.62,0-1.2-.09-1.73-.28-.53-.19-.99-.45-1.39-.79-.4-.34-.71-.75-.93-1.23-.23-.48-.34-1.02-.34-1.63,0-.85.16-1.55.48-2.09.32-.55.82-.99,1.51-1.34.69-.35,1.57-.61,2.66-.78,1.08-.17,2.4-.29,3.95-.37.15-1.62.08-2.81-.2-3.56-.28-.75-.9-1.13-1.84-1.13-.58,0-1.12.09-1.61.28l-1.33,3.39h-1.24c-.15-.23-.3-.49-.44-.78s-.27-.6-.4-.93c-.12-.33-.23-.67-.31-1-.08-.34-.15-.67-.18-.99.72-.49,1.64-.88,2.77-1.16,1.13-.28,2.33-.42,3.59-.42,1.07,0,1.95.12,2.63.35.68.24,1.21.56,1.6.96.39.41.66.88.81,1.43.15.55.23,1.13.23,1.75,0,1.13-.02,2.16-.07,3.07-.05.92-.07,1.85-.07,2.82ZM198.64,631.66c.4,0,.74-.08,1.02-.23.28-.15.52-.33.72-.54.2-.21.35-.43.45-.68s.18-.46.24-.65v-2.83c-.89.02-1.61.08-2.18.17-.57.09-1.01.25-1.33.47-.32.22-.54.49-.67.82s-.18.73-.18,1.2c0,.72.17,1.27.51,1.67.34.4.81.59,1.41.59Z"/>
    <path class="st3" d="M218.45,630.5c0-.49-.17-.91-.52-1.27-.35-.36-.78-.69-1.3-.99-.52-.3-1.08-.6-1.7-.91-.61-.3-1.18-.66-1.7-1.06s-.95-.88-1.3-1.43-.52-1.22-.52-2.01c0-.57.13-1.08.4-1.54.26-.46.62-.85,1.07-1.17.45-.32.99-.57,1.63-.75.63-.18,1.32-.27,2.05-.27,1.02,0,1.97.08,2.84.24s1.65.38,2.31.66c-.08.6-.23,1.25-.45,1.94-.23.69-.44,1.32-.65,1.88h-.96l-1.19-2.89c-.23-.09-.46-.16-.71-.18s-.52-.04-.82-.04c-.57,0-1,.17-1.29.49-.29.33-.44.7-.44,1.12,0,.47.17.88.52,1.23.35.35.78.67,1.3.98.52.3,1.08.6,1.7.91.61.3,1.18.65,1.7,1.03.52.39.95.84,1.3,1.37.35.53.52,1.16.52,1.9,0,1.3-.53,2.33-1.58,3.07-1.06.75-2.47,1.12-4.24,1.12-.91,0-1.84-.09-2.8-.28-.96-.19-1.79-.45-2.49-.79.04-.68.2-1.37.48-2.07.28-.7.58-1.32.91-1.87h.96l1.39,3.08c.21.15.44.24.69.27.25.03.5.04.72.04.55,0,1.05-.16,1.5-.48.45-.32.68-.76.68-1.33Z"/>
    <path class="st3" d="M227.87,620.83c0-1.24.22-2.36.65-3.34.43-.98,1.02-1.81,1.75-2.49s1.58-1.2,2.55-1.56c.96-.36,1.97-.54,3.03-.54s2.1.18,3.07.54c.97.36,1.82.88,2.55,1.56.73.68,1.3,1.51,1.73,2.49.42.98.64,2.09.64,3.34s-.22,2.36-.65,3.34c-.43.98-1.02,1.81-1.75,2.49s-1.58,1.2-2.55,1.56-1.97.54-3.03.54-2.1-.18-3.07-.54c-.97-.36-1.82-.88-2.55-1.56s-1.3-1.51-1.73-2.49-.64-2.09-.64-3.34ZM229.62,620.83c0,.98.16,1.86.5,2.65.33.78.78,1.45,1.34,2.01.57.56,1.23.98,1.98,1.27.75.29,1.56.44,2.4.44s1.71-.15,2.48-.44c.76-.29,1.42-.71,1.98-1.26.56-.55.99-1.21,1.3-1.99.31-.78.47-1.67.47-2.67s-.17-1.86-.5-2.64c-.33-.78-.78-1.45-1.34-1.99-.57-.55-1.23-.97-1.98-1.27-.75-.3-1.56-.45-2.4-.45-.91,0-1.74.15-2.49.45s-1.41.73-1.97,1.27c-.56.55-.99,1.21-1.3,1.99-.31.78-.47,1.66-.47,2.64ZM234.97,623.66c.24.02.43.05.57.1s.26.1.4.16v.93h-3.9v-.93c.32-.11.65-.2.99-.25v-6.08c-.21-.02-.39-.05-.54-.1s-.3-.12-.45-.21v-.88h1.47c.34,0,.74-.02,1.22-.06.47-.04.86-.06,1.16-.06,1.02,0,1.85.18,2.49.55.64.37.96.98.96,1.83,0,.58-.18,1.06-.54,1.43-.36.37-.8.64-1.33.81.17.28.33.54.47.76.14.23.29.45.44.67.15.22.33.43.52.65.2.22.43.45.69.69l.65.34v.85h-1.81l-.79-.31c-.47-.57-.83-1.13-1.06-1.7-.24-.57-.46-1.12-.67-1.67h-.93v2.49ZM235.73,617.43c-.21,0-.36,0-.45.01-.09,0-.2.03-.31.07v2.57h.82c.45,0,.8-.11,1.05-.34.25-.23.36-.59.34-1.1-.02-.43-.16-.75-.41-.93-.25-.19-.6-.28-1.03-.28Z"/>
    <path class="st3" d="M27.98,667.54v-1.08c.32-.19.68-.35,1.07-.5s.81-.25,1.24-.33v-16.01c-.43-.09-.85-.21-1.26-.35-.41-.14-.76-.3-1.06-.47v-1.08h3.28c.32,0,.72,0,1.19-.03.47-.02.96-.04,1.47-.07s1-.06,1.49-.08.89-.04,1.23-.04c1.64,0,3.11.22,4.4.65,1.29.43,2.39,1.07,3.28,1.9.9.83,1.58,1.86,2.06,3.08.48,1.23.72,2.64.72,4.24s-.23,2.99-.68,4.27-1.13,2.38-2.04,3.28-2.05,1.61-3.44,2.11c-1.39.5-3.01.75-4.88.75-.25,0-.58-.01-.99-.04-.42-.03-.86-.06-1.33-.08-.47-.03-.94-.06-1.41-.08-.47-.03-.89-.04-1.24-.04h-3.11ZM36.27,649.35c-.34,0-.68,0-1.02.03-.34.02-.63.05-.88.08v16.38c.08.02.21.03.4.04.19,0,.38.02.58.03.2,0,.39.02.58.03.19,0,.33.01.42.01,1.09,0,2.02-.23,2.79-.68.76-.45,1.39-1.07,1.88-1.84.49-.77.85-1.68,1.08-2.72.23-1.04.34-2.14.34-3.31,0-1.04-.12-2.04-.35-3-.24-.96-.6-1.82-1.09-2.57-.49-.75-1.13-1.36-1.91-1.81-.78-.45-1.72-.68-2.81-.68Z"/>
    <path class="st3" d="M64.81,665.16c-.15.32-.39.65-.72.98-.33.33-.74.62-1.22.88s-1.04.46-1.67.62c-.63.16-1.32.24-2.05.24-1.17,0-2.21-.17-3.11-.52s-1.66-.85-2.26-1.5c-.6-.65-1.06-1.43-1.37-2.33s-.47-1.92-.47-3.06c0-2.41.63-4.25,1.9-5.52,1.26-1.26,3.02-1.9,5.26-1.9.96,0,1.86.13,2.7.4.84.26,1.54.7,2.09,1.3.56.6.94,1.4,1.16,2.38s.2,2.18-.04,3.59h-8.68c.02,1.49.4,2.68,1.15,3.56.74.89,1.84,1.33,3.3,1.33.62,0,1.27-.09,1.94-.28.67-.19,1.19-.43,1.57-.74l.54.57ZM58.97,654.66c-.38,0-.71.07-1,.2-.29.13-.54.37-.76.72-.22.35-.39.82-.52,1.41-.13.59-.23,1.34-.28,2.25h4.53c.13-1.47.05-2.6-.25-3.39-.3-.79-.87-1.19-1.72-1.19Z"/>
    <path class="st3" d="M96.35,667.54h-7.07v-1.08c.19-.11.4-.23.64-.35.24-.12.49-.23.78-.33v-5.64c0-.87-.02-1.61-.07-2.21-.05-.61-.15-1.1-.3-1.49-.15-.39-.36-.67-.62-.85-.26-.18-.6-.27-1.02-.27-.6,0-1.13.23-1.57.69-.44.46-.77,1.07-.98,1.83v7.94c.51.15.98.38,1.41.68v1.08h-7.35v-1.08c.26-.13.56-.25.88-.37.32-.11.65-.22.99-.31v-10.41l-1.87-.23v-1.08c.3-.13.67-.25,1.12-.37.44-.11.9-.21,1.37-.3.47-.08.93-.16,1.37-.21.44-.06.82-.1,1.12-.14h.96v3.2h.03c.3-.89.83-1.64,1.6-2.26.76-.62,1.68-.93,2.76-.93.45,0,.9.05,1.33.14.43.09.83.27,1.2.52.37.25.68.61.95,1.06.26.45.45,1.04.57,1.75.34-1.04.91-1.88,1.7-2.52.79-.64,1.75-.96,2.89-.96.7,0,1.32.09,1.85.27.54.18.99.5,1.36.95.37.45.65,1.07.83,1.84.19.77.28,1.76.28,2.95v6.72c.64.11,1.26.34,1.87.68v1.08h-7.36v-1.08c.43-.28.91-.51,1.41-.68v-6.15c0-1.47-.14-2.56-.41-3.26-.27-.7-.86-1.05-1.77-1.05-.68,0-1.21.25-1.6.77-.39.51-.67,1.19-.86,2.04v7.66c.32.09.61.2.86.31.25.11.5.24.72.37v1.08Z"/>
    <path class="st3" d="M122.26,665.16c-.15.32-.39.65-.72.98-.33.33-.74.62-1.22.88s-1.04.46-1.67.62c-.63.16-1.32.24-2.05.24-1.17,0-2.21-.17-3.11-.52s-1.66-.85-2.26-1.5c-.6-.65-1.06-1.43-1.37-2.33s-.47-1.92-.47-3.06c0-2.41.63-4.25,1.9-5.52,1.26-1.26,3.02-1.9,5.26-1.9.96,0,1.86.13,2.7.4.84.26,1.54.7,2.09,1.3.56.6.94,1.4,1.16,2.38s.2,2.18-.04,3.59h-8.68c.02,1.49.4,2.68,1.15,3.56.74.89,1.84,1.33,3.3,1.33.62,0,1.27-.09,1.94-.28.67-.19,1.19-.43,1.57-.74l.54.57ZM116.42,654.66c-.38,0-.71.07-1,.2-.29.13-.54.37-.76.72-.22.35-.39.82-.52,1.41-.13.59-.23,1.34-.28,2.25h4.53c.13-1.47.05-2.6-.25-3.39-.3-.79-.87-1.19-1.72-1.19Z"/>
    <path class="st3" d="M126.76,654.1c.72-.46,1.47-.79,2.26-.99v-2.29c.15-.11.52-.28,1.12-.5s1.26-.39,1.99-.52h.96v3.59h3.73v1.84h-3.73v7.29c0,1.16.15,1.97.44,2.42s.78.67,1.46.67c.34,0,.72-.02,1.15-.07s.82-.14,1.17-.27l.2.93c-.17.17-.42.35-.75.54-.33.19-.71.37-1.13.54s-.89.31-1.39.42c-.5.11-1.02.17-1.57.17-1.23,0-2.14-.32-2.74-.96s-.91-1.67-.91-3.1v-8.59h-2.26v-1.13Z"/>
    <path class="st3" d="M158.42,667.54h-7.5v-1.08c.23-.13.46-.25.71-.37s.53-.22.85-.31v-5.73c0-1.63-.16-2.82-.47-3.59-.31-.77-.92-1.15-1.82-1.15-.75,0-1.4.26-1.92.78-.53.52-.91,1.12-1.13,1.8v7.88c.3.08.57.16.81.26.24.09.49.24.75.42v1.08h-7.5v-1.08c.58-.3,1.21-.53,1.87-.68v-17.2l-2.15-.23v-1.08c.28-.11.65-.23,1.09-.34.44-.11.91-.21,1.4-.3.49-.08.98-.16,1.47-.23.49-.07.92-.12,1.3-.16h.96v9.99h.03c.19-.43.44-.84.76-1.23.32-.39.68-.73,1.09-1.02.41-.29.84-.52,1.32-.69.47-.17.97-.25,1.5-.25.75,0,1.43.09,2.02.27.59.18,1.09.5,1.49.95.4.45.7,1.06.91,1.83.21.77.31,1.73.31,2.91v6.78c.32.08.64.16.96.25.32.09.62.24.91.42v1.08Z"/>
    <path class="st3" d="M162.46,660.46c0-1.15.17-2.18.52-3.1.35-.91.85-1.69,1.5-2.33.65-.64,1.44-1.13,2.36-1.47.92-.34,1.97-.51,3.14-.51,1.32,0,2.46.18,3.41.55.95.37,1.73.88,2.35,1.53.61.65,1.06,1.43,1.34,2.35s.42,1.91.42,2.98c0,1.15-.17,2.18-.51,3.1-.34.92-.83,1.69-1.48,2.33-.65.64-1.44,1.13-2.38,1.47-.93.34-1.99.51-3.15.51-1.28,0-2.4-.18-3.34-.55-.94-.37-1.73-.88-2.35-1.53-.62-.65-1.08-1.43-1.39-2.35-.3-.91-.45-1.91-.45-2.98ZM166.85,660.46c0,.85.05,1.63.16,2.33.1.71.29,1.31.55,1.8.26.49.62.87,1.07,1.15s1.04.41,1.75.41c.41,0,.79-.1,1.13-.3.34-.2.63-.52.88-.96.24-.44.43-1.03.55-1.75.12-.73.18-1.62.18-2.67,0-.87-.05-1.65-.16-2.35-.1-.7-.28-1.29-.54-1.78-.25-.49-.6-.87-1.03-1.15-.43-.27-.98-.41-1.64-.41-.49,0-.92.1-1.27.3-.36.2-.66.52-.91.96-.25.44-.43,1.03-.55,1.75-.12.73-.18,1.62-.18,2.67Z"/>
    <path class="st3" d="M191.74,664.73c-.09.42-.26.81-.51,1.19s-.54.71-.88,1c-.34.29-.73.52-1.16.69-.43.17-.9.25-1.39.25-1.87,0-3.29-.59-4.26-1.77-.97-1.18-1.46-2.98-1.46-5.42,0-1.25.17-2.33.51-3.27s.82-1.72,1.43-2.36c.61-.64,1.35-1.12,2.22-1.44.87-.32,1.83-.48,2.89-.48.34,0,.63,0,.86.03.24.02.45.04.65.07.2.03.39.08.57.14.18.07.38.14.61.21v-5.01l-2.15-.23v-1.08c.26-.11.63-.22,1.09-.31.46-.09.95-.18,1.46-.27s1.01-.17,1.5-.24c.49-.08.9-.14,1.22-.2h.96v19.26l1.87.23v.99c-.26.13-.6.25-1.02.37-.42.11-.85.22-1.3.31-.45.09-.89.17-1.32.24s-.78.12-1.06.16h-.96l-.25-3.08h-.11ZM189.17,665.61c.66,0,1.22-.21,1.67-.62s.78-1.12.99-2.12v-7.61c-.25-.15-.55-.27-.92-.37-.37-.09-.83-.14-1.37-.14-1.09,0-1.88.5-2.35,1.49-.47.99-.71,2.43-.71,4.31,0,1.53.21,2.75.62,3.68.41.92,1.1,1.39,2.06,1.39Z"/>
    <path class="st3" d="M214.74,665.16c-.15.32-.39.65-.72.98-.33.33-.74.62-1.22.88s-1.04.46-1.67.62c-.63.16-1.32.24-2.05.24-1.17,0-2.21-.17-3.11-.52s-1.66-.85-2.26-1.5c-.6-.65-1.06-1.43-1.37-2.33s-.47-1.92-.47-3.06c0-2.41.63-4.25,1.9-5.52,1.26-1.26,3.02-1.9,5.26-1.9.96,0,1.86.13,2.7.4.84.26,1.54.7,2.09,1.3.56.6.94,1.4,1.16,2.38s.2,2.18-.04,3.59h-8.68c.02,1.49.4,2.68,1.15,3.56.74.89,1.84,1.33,3.3,1.33.62,0,1.27-.09,1.94-.28.67-.19,1.19-.43,1.57-.74l.54.57ZM208.9,654.66c-.38,0-.71.07-1,.2-.29.13-.54.37-.76.72-.22.35-.39.82-.52,1.41-.13.59-.23,1.34-.28,2.25h4.53c.13-1.47.05-2.6-.25-3.39-.3-.79-.87-1.19-1.72-1.19Z"/>
    <path class="st3" d="M240,664.73c-.09.42-.26.81-.51,1.19s-.54.71-.88,1c-.34.29-.73.52-1.16.69-.43.17-.9.25-1.39.25-1.87,0-3.29-.59-4.26-1.77-.97-1.18-1.46-2.98-1.46-5.42,0-1.25.17-2.33.51-3.27s.82-1.72,1.43-2.36c.61-.64,1.35-1.12,2.22-1.44.87-.32,1.83-.48,2.89-.48.34,0,.63,0,.86.03.24.02.45.04.65.07.2.03.39.08.57.14.18.07.38.14.61.21v-5.01l-2.15-.23v-1.08c.26-.11.63-.22,1.09-.31.46-.09.95-.18,1.46-.27s1.01-.17,1.5-.24c.49-.08.9-.14,1.22-.2h.96v19.26l1.87.23v.99c-.26.13-.6.25-1.02.37-.42.11-.85.22-1.3.31-.45.09-.89.17-1.32.24s-.78.12-1.06.16h-.96l-.25-3.08h-.11ZM237.43,665.61c.66,0,1.22-.21,1.67-.62s.78-1.12.99-2.12v-7.61c-.25-.15-.55-.27-.92-.37-.37-.09-.83-.14-1.37-.14-1.09,0-1.88.5-2.35,1.49-.47.99-.71,2.43-.71,4.31,0,1.53.21,2.75.62,3.68.41.92,1.1,1.39,2.06,1.39Z"/>
    <path class="st3" d="M257.94,667.54h-7.81v-1.08c.28-.15.58-.28.88-.38.3-.1.63-.2.99-.3v-10.41l-1.87-.23v-1.08c.28-.11.64-.23,1.06-.34.42-.11.87-.21,1.34-.3.47-.08.93-.16,1.39-.23s.85-.12,1.19-.16h.96v12.73c.38.09.72.19,1.02.3.3.1.58.23.85.38v1.08ZM251.57,648.75c0-.66.22-1.18.67-1.56.45-.38,1.02-.57,1.73-.57s1.29.19,1.73.57c.45.38.67.9.67,1.56s-.22,1.15-.67,1.53c-.45.38-1.03.57-1.73.57s-1.29-.19-1.73-.57c-.45-.38-.67-.89-.67-1.53Z"/>
    <path class="st3" d="M275.22,665.16c-.15.32-.39.65-.72.98-.33.33-.74.62-1.22.88s-1.04.46-1.67.62c-.63.16-1.32.24-2.05.24-1.17,0-2.21-.17-3.11-.52s-1.66-.85-2.26-1.5c-.6-.65-1.06-1.43-1.37-2.33s-.47-1.92-.47-3.06c0-2.41.63-4.25,1.9-5.52,1.26-1.26,3.02-1.9,5.26-1.9.96,0,1.86.13,2.7.4.84.26,1.54.7,2.09,1.3.56.6.94,1.4,1.16,2.38s.2,2.18-.04,3.59h-8.68c.02,1.49.4,2.68,1.15,3.56.74.89,1.84,1.33,3.3,1.33.62,0,1.27-.09,1.94-.28.67-.19,1.19-.43,1.57-.74l.54.57ZM269.38,654.66c-.38,0-.71.07-1,.2-.29.13-.54.37-.76.72-.22.35-.39.82-.52,1.41-.13.59-.23,1.34-.28,2.25h4.53c.13-1.47.05-2.6-.25-3.39-.3-.79-.87-1.19-1.72-1.19Z"/>
    <path class="st3" d="M298.11,664.45c0-.49-.17-.91-.52-1.27-.35-.36-.78-.69-1.3-.99-.52-.3-1.08-.6-1.7-.91-.61-.3-1.18-.66-1.7-1.06s-.95-.88-1.3-1.43-.52-1.22-.52-2.01c0-.57.13-1.08.4-1.54.26-.46.62-.85,1.07-1.17.45-.32.99-.57,1.63-.75.63-.18,1.32-.27,2.05-.27,1.02,0,1.97.08,2.84.24.88.16,1.65.38,2.31.66-.08.6-.23,1.25-.45,1.94s-.44,1.32-.65,1.88h-.96l-1.19-2.89c-.23-.09-.46-.16-.71-.18s-.52-.04-.82-.04c-.57,0-1,.17-1.29.49-.29.33-.44.7-.44,1.12,0,.47.17.88.52,1.23.35.35.78.67,1.3.98.52.3,1.08.6,1.7.91.61.3,1.18.65,1.7,1.03.52.39.95.84,1.3,1.37.35.53.52,1.16.52,1.9,0,1.3-.53,2.33-1.58,3.07-1.06.75-2.47,1.12-4.24,1.12-.91,0-1.84-.09-2.8-.28-.96-.19-1.79-.45-2.49-.79.04-.68.2-1.37.48-2.07.28-.7.58-1.32.91-1.87h.96l1.39,3.08c.21.15.44.24.69.27.25.03.5.04.72.04.55,0,1.05-.16,1.5-.48.45-.32.68-.76.68-1.33Z"/>
    <path class="st3" d="M318.87,663.43c0,.42,0,.77.01,1.07,0,.3.03.62.07.96l1.95.28v.99c-.23.11-.53.23-.92.34-.39.11-.79.22-1.22.33-.42.1-.84.19-1.26.25-.42.07-.78.12-1.1.16h-.96c-.19-.43-.3-.87-.34-1.3-.04-.43-.07-.96-.08-1.58h-.14c-.09.38-.25.74-.48,1.09-.23.35-.51.66-.86.93-.35.27-.76.5-1.23.67s-1,.25-1.58.25c-.62,0-1.2-.09-1.73-.28s-.99-.45-1.39-.79c-.4-.34-.71-.75-.93-1.23-.23-.48-.34-1.02-.34-1.63,0-.85.16-1.55.48-2.09.32-.55.82-.99,1.51-1.34.69-.35,1.58-.61,2.66-.78,1.08-.17,2.4-.29,3.95-.37.15-1.62.08-2.81-.2-3.56-.28-.75-.9-1.13-1.84-1.13-.58,0-1.12.09-1.61.28l-1.33,3.39h-1.25c-.15-.23-.3-.49-.44-.78-.14-.29-.27-.6-.4-.93-.12-.33-.23-.67-.31-1-.08-.34-.15-.67-.18-.99.72-.49,1.64-.88,2.77-1.16s2.33-.42,3.59-.42c1.08,0,1.95.12,2.63.35.68.24,1.21.56,1.6.96.39.41.66.88.81,1.43.15.55.23,1.13.23,1.75,0,1.13-.02,2.16-.07,3.07-.05.92-.07,1.85-.07,2.82ZM312.5,665.61c.4,0,.74-.08,1.02-.23.28-.15.52-.33.72-.54.2-.21.35-.43.45-.68s.18-.46.24-.65v-2.83c-.89.02-1.61.08-2.18.17-.57.09-1.01.25-1.33.47-.32.22-.54.49-.66.82-.12.33-.18.73-.18,1.2,0,.72.17,1.27.51,1.67.34.4.81.59,1.41.59Z"/>
    <path class="st3" d="M340.96,667.54h-7.07v-1.08c.19-.11.4-.23.64-.35.24-.12.5-.23.78-.33v-5.64c0-.87-.02-1.61-.07-2.21-.05-.61-.15-1.1-.3-1.49-.15-.39-.36-.67-.62-.85-.26-.18-.6-.27-1.02-.27-.6,0-1.13.23-1.57.69-.44.46-.77,1.07-.98,1.83v7.94c.51.15.98.38,1.41.68v1.08h-7.36v-1.08c.26-.13.56-.25.88-.37s.65-.22.99-.31v-10.41l-1.87-.23v-1.08c.3-.13.67-.25,1.12-.37.44-.11.9-.21,1.37-.3.47-.08.93-.16,1.37-.21s.82-.1,1.12-.14h.96v3.2h.03c.3-.89.83-1.64,1.6-2.26.76-.62,1.68-.93,2.76-.93.45,0,.9.05,1.33.14.43.09.83.27,1.2.52.37.25.68.61.95,1.06.26.45.45,1.04.57,1.75.34-1.04.91-1.88,1.7-2.52.79-.64,1.75-.96,2.89-.96.7,0,1.32.09,1.85.27.54.18.99.5,1.36.95.37.45.65,1.07.83,1.84.19.77.28,1.76.28,2.95v6.72c.64.11,1.26.34,1.87.68v1.08h-7.36v-1.08c.43-.28.91-.51,1.42-.68v-6.15c0-1.47-.14-2.56-.41-3.26-.27-.7-.86-1.05-1.77-1.05-.68,0-1.21.25-1.6.77s-.67,1.19-.86,2.04v7.66c.32.09.61.2.86.31.25.11.5.24.72.37v1.08Z"/>
    <path class="st3" d="M366.88,665.16c-.15.32-.39.65-.72.98-.33.33-.74.62-1.22.88-.48.25-1.04.46-1.67.62-.63.16-1.32.24-2.05.24-1.17,0-2.21-.17-3.11-.52s-1.66-.85-2.26-1.5c-.6-.65-1.06-1.43-1.37-2.33s-.47-1.92-.47-3.06c0-2.41.63-4.25,1.9-5.52s3.02-1.9,5.26-1.9c.96,0,1.86.13,2.7.4.84.26,1.54.7,2.09,1.3.56.6.94,1.4,1.16,2.38.22.98.2,2.18-.04,3.59h-8.68c.02,1.49.4,2.68,1.15,3.56s1.84,1.33,3.3,1.33c.62,0,1.27-.09,1.94-.28.67-.19,1.19-.43,1.57-.74l.54.57ZM361.03,654.66c-.38,0-.71.07-1,.2-.29.13-.54.37-.76.72-.22.35-.39.82-.52,1.41-.13.59-.23,1.34-.28,2.25h4.53c.13-1.47.05-2.6-.25-3.39-.3-.79-.87-1.19-1.71-1.19Z"/>
    <path class="st3" d="M389.03,667.54h-7.5v-1.08c.25-.13.49-.25.72-.35.24-.1.51-.21.83-.33v-6.67c0-1.19-.17-2.12-.51-2.79s-.94-1.01-1.81-1.01c-.72,0-1.33.23-1.85.69-.52.46-.91,1.09-1.17,1.89v7.88c.3.08.57.17.81.27.24.1.49.24.75.41v1.08h-7.5v-1.08c.47-.25,1.09-.47,1.87-.68v-10.41l-1.87-.23v-1.08c.25-.11.57-.22.96-.33.4-.1.83-.2,1.29-.3.46-.09.93-.17,1.42-.24.48-.07.92-.12,1.32-.16h.96v2.91h.03c.4-.79.99-1.48,1.78-2.05.79-.58,1.75-.86,2.88-.86.74,0,1.4.09,1.98.27.58.18,1.08.5,1.49.95.41.45.72,1.06.93,1.83s.33,1.73.33,2.91v6.78c.75.13,1.38.36,1.87.68v1.08Z"/>
    <path class="st3" d="M399.66,653.05c1.23,0,2.24.13,3.05.38.81.25,1.42.57,1.84.95.89-.96,1.9-1.63,3.06-2.01.13.09.26.23.4.41.13.18.25.37.34.58.09.21.17.42.23.62.06.21.08.38.08.51l-.37.68h-2.97c.21.26.4.61.58,1.03.18.42.27.93.27,1.51,0,.62-.13,1.21-.4,1.75-.26.55-.67,1.03-1.2,1.46-.54.42-1.22.76-2.04,1-.82.25-1.78.37-2.87.37-.32,0-.61,0-.86-.01-.25,0-.48-.03-.67-.07-.08.11-.16.25-.24.41s-.13.32-.13.47c0,.32.23.58.68.76.45.19,1.03.36,1.73.51.7.15,1.45.32,2.25.51s1.55.44,2.25.75c.7.31,1.28.72,1.75,1.22.47.5.72,1.15.74,1.94.02.75-.17,1.42-.57,2.01-.4.58-.94,1.08-1.63,1.49s-1.5.72-2.43.93-1.93.33-2.98.33c-1.25,0-2.31-.1-3.18-.3s-1.59-.47-2.14-.81c-.55-.34-.95-.73-1.2-1.16-.25-.43-.38-.89-.38-1.36,0-.53.1-.98.31-1.36.21-.38.5-.71.88-.99s.82-.52,1.32-.71,1.05-.36,1.66-.51c-.28-.08-.56-.17-.82-.28-.26-.11-.5-.25-.71-.41-.21-.16-.38-.35-.51-.57-.13-.22-.2-.47-.2-.75,0-.25.08-.49.23-.72.15-.24.35-.45.59-.65.25-.2.51-.38.79-.54.28-.16.57-.3.85-.41-1.19-.26-2.13-.78-2.83-1.54-.7-.76-1.05-1.74-1.05-2.93,0-1.41.58-2.52,1.75-3.31,1.17-.79,2.75-1.19,4.75-1.19ZM403.23,669.69c0-.51-.16-.92-.47-1.23-.31-.31-.71-.57-1.2-.76-.49-.2-1.04-.37-1.65-.51-.61-.14-1.22-.31-1.83-.5-.49.38-.84.75-1.05,1.13-.21.38-.31.83-.31,1.36,0,.87.3,1.54.89,2.02.59.48,1.43.72,2.5.72s1.84-.22,2.35-.67c.51-.44.76-.97.76-1.57ZM397.23,657.69c0,.98.17,1.73.5,2.24.33.51.98.76,1.94.76s1.56-.26,1.91-.78c.35-.52.52-1.26.52-2.22,0-1.02-.18-1.78-.54-2.28-.36-.5-.99-.75-1.89-.75s-1.58.25-1.92.74c-.34.49-.51,1.25-.51,2.29Z"/>
    <path class="st3" d="M424.73,665.16c-.15.32-.39.65-.72.98-.33.33-.74.62-1.22.88-.48.25-1.04.46-1.67.62-.63.16-1.32.24-2.05.24-1.17,0-2.21-.17-3.11-.52s-1.66-.85-2.26-1.5c-.6-.65-1.06-1.43-1.37-2.33s-.47-1.92-.47-3.06c0-2.41.63-4.25,1.9-5.52s3.02-1.9,5.26-1.9c.96,0,1.86.13,2.7.4.84.26,1.54.7,2.09,1.3.56.6.94,1.4,1.16,2.38.22.98.2,2.18-.04,3.59h-8.68c.02,1.49.4,2.68,1.15,3.56s1.84,1.33,3.3,1.33c.62,0,1.27-.09,1.94-.28.67-.19,1.19-.43,1.57-.74l.54.57ZM418.88,654.66c-.38,0-.71.07-1,.2-.29.13-.54.37-.76.72-.22.35-.39.82-.52,1.41-.13.59-.23,1.34-.28,2.25h4.53c.13-1.47.05-2.6-.25-3.39-.3-.79-.87-1.19-1.71-1.19Z"/>
    <path class="st3" d="M437.15,664.45c0-.49-.17-.91-.52-1.27-.35-.36-.78-.69-1.3-.99s-1.08-.6-1.7-.91-1.18-.66-1.7-1.06-.95-.88-1.3-1.43c-.35-.55-.52-1.22-.52-2.01,0-.57.13-1.08.4-1.54.26-.46.62-.85,1.08-1.17.45-.32,1-.57,1.63-.75.63-.18,1.32-.27,2.05-.27,1.02,0,1.97.08,2.84.24s1.65.38,2.31.66c-.08.6-.23,1.25-.45,1.94-.23.69-.44,1.32-.65,1.88h-.96l-1.19-2.89c-.23-.09-.46-.16-.71-.18-.25-.03-.52-.04-.82-.04-.57,0-1,.17-1.29.49-.29.33-.44.7-.44,1.12,0,.47.17.88.52,1.23.35.35.78.67,1.3.98.52.3,1.08.6,1.7.91.61.3,1.18.65,1.7,1.03s.95.84,1.3,1.37c.35.53.52,1.16.52,1.9,0,1.3-.53,2.33-1.58,3.07-1.06.75-2.47,1.12-4.24,1.12-.91,0-1.84-.09-2.8-.28s-1.79-.45-2.49-.79c.04-.68.2-1.37.48-2.07.28-.7.58-1.32.91-1.87h.96l1.39,3.08c.21.15.44.24.69.27.25.03.5.04.72.04.55,0,1.05-.16,1.5-.48.45-.32.68-.76.68-1.33Z"/>
    <path class="st3" d="M444.84,654.1c.72-.46,1.47-.79,2.26-.99v-2.29c.15-.11.52-.28,1.12-.5.59-.22,1.26-.39,2-.52h.96v3.59h3.73v1.84h-3.73v7.29c0,1.16.15,1.97.44,2.42.29.45.78.67,1.46.67.34,0,.72-.02,1.15-.07.42-.05.82-.14,1.17-.27l.2.93c-.17.17-.42.35-.75.54s-.71.37-1.13.54c-.42.17-.89.31-1.39.42-.5.11-1.02.17-1.57.17-1.23,0-2.14-.32-2.74-.96s-.91-1.67-.91-3.1v-8.59h-2.26v-1.13Z"/>
    <path class="st3" d="M472.48,665.16c-.15.32-.39.65-.72.98-.33.33-.74.62-1.22.88-.48.25-1.04.46-1.67.62-.63.16-1.32.24-2.05.24-1.17,0-2.21-.17-3.11-.52s-1.66-.85-2.26-1.5c-.6-.65-1.06-1.43-1.37-2.33s-.47-1.92-.47-3.06c0-2.41.63-4.25,1.9-5.52s3.02-1.9,5.26-1.9c.96,0,1.86.13,2.7.4.84.26,1.54.7,2.09,1.3.56.6.94,1.4,1.16,2.38.22.98.2,2.18-.04,3.59h-8.68c.02,1.49.4,2.68,1.15,3.56s1.84,1.33,3.3,1.33c.62,0,1.27-.09,1.94-.28.67-.19,1.19-.43,1.57-.74l.54.57ZM466.63,654.66c-.38,0-.71.07-1,.2-.29.13-.54.37-.76.72-.22.35-.39.82-.52,1.41-.13.59-.23,1.34-.28,2.25h4.53c.13-1.47.05-2.6-.25-3.39-.3-.79-.87-1.19-1.71-1.19Z"/>
    <path class="st3" d="M485.43,667.54h-7.81v-1.08c.62-.3,1.25-.53,1.87-.68v-17.2l-2.15-.23v-1.08c.25-.11.58-.23,1.02-.34s.9-.21,1.4-.3,1-.16,1.5-.23c.5-.07.95-.12,1.34-.16h.96v19.52c.62.15,1.25.38,1.87.68v1.08Z"/>
    <path class="st3" d="M499.49,664.73c-.09.42-.26.81-.51,1.19-.25.38-.54.71-.88,1-.34.29-.73.52-1.16.69s-.9.25-1.39.25c-1.87,0-3.29-.59-4.26-1.77-.97-1.18-1.46-2.98-1.46-5.42,0-1.25.17-2.33.51-3.27.34-.93.82-1.72,1.43-2.36.61-.64,1.35-1.12,2.22-1.44s1.83-.48,2.89-.48c.34,0,.63,0,.86.03.24.02.45.04.65.07s.39.08.57.14c.18.07.38.14.61.21v-5.01l-2.15-.23v-1.08c.26-.11.63-.22,1.09-.31.46-.09.95-.18,1.46-.27.51-.08,1.01-.17,1.5-.24.49-.08.9-.14,1.22-.2h.96v19.26l1.87.23v.99c-.26.13-.6.25-1.02.37-.42.11-.85.22-1.3.31-.45.09-.89.17-1.32.24-.42.07-.78.12-1.06.16h-.96l-.25-3.08h-.11ZM496.92,665.61c.66,0,1.22-.21,1.67-.62.45-.42.78-1.12.99-2.12v-7.61c-.25-.15-.55-.27-.92-.37-.37-.09-.83-.14-1.37-.14-1.09,0-1.88.5-2.35,1.49s-.71,2.43-.71,4.31c0,1.53.21,2.75.62,3.68s1.1,1.39,2.07,1.39Z"/>
    <path class="st3" d="M522.49,665.16c-.15.32-.39.65-.72.98-.33.33-.74.62-1.22.88-.48.25-1.04.46-1.67.62-.63.16-1.32.24-2.05.24-1.17,0-2.21-.17-3.11-.52s-1.66-.85-2.26-1.5c-.6-.65-1.06-1.43-1.37-2.33s-.47-1.92-.47-3.06c0-2.41.63-4.25,1.9-5.52s3.02-1.9,5.26-1.9c.96,0,1.86.13,2.7.4.84.26,1.54.7,2.09,1.3.56.6.94,1.4,1.16,2.38.22.98.2,2.18-.04,3.59h-8.68c.02,1.49.4,2.68,1.15,3.56s1.84,1.33,3.3,1.33c.62,0,1.27-.09,1.94-.28.67-.19,1.19-.43,1.57-.74l.54.57ZM516.65,654.66c-.38,0-.71.07-1,.2-.29.13-.54.37-.76.72-.22.35-.39.82-.52,1.41-.13.59-.23,1.34-.28,2.25h4.53c.13-1.47.05-2.6-.25-3.39-.3-.79-.87-1.19-1.71-1.19Z"/>
    <path class="st3" d="M34.88,687c1.23,0,2.24.13,3.06.38.81.25,1.42.57,1.84.95.89-.96,1.9-1.63,3.06-2.01.13.09.26.23.4.41.13.18.25.37.34.58.09.21.17.42.23.62.06.21.08.38.08.51l-.37.68h-2.97c.21.26.4.61.58,1.03.18.42.27.93.27,1.51,0,.62-.13,1.21-.4,1.75s-.66,1.03-1.2,1.46c-.54.42-1.22.76-2.04,1-.82.25-1.78.37-2.87.37-.32,0-.61,0-.86-.01-.25,0-.48-.03-.66-.07-.08.11-.16.25-.24.41s-.13.32-.13.47c0,.32.23.58.68.76s1.03.36,1.73.51c.7.15,1.45.32,2.25.51.8.19,1.55.44,2.25.75.7.31,1.28.72,1.75,1.22.47.5.72,1.15.74,1.94.02.75-.17,1.42-.57,2.01-.4.58-.94,1.08-1.63,1.49s-1.5.72-2.43.93-1.93.33-2.98.33c-1.24,0-2.31-.1-3.18-.3s-1.59-.47-2.14-.81c-.55-.34-.95-.73-1.2-1.16-.25-.43-.38-.89-.38-1.36,0-.53.1-.98.31-1.36.21-.38.5-.71.88-.99.38-.28.82-.52,1.32-.71.5-.19,1.05-.36,1.66-.51-.28-.08-.56-.17-.82-.28s-.5-.25-.71-.41-.38-.35-.51-.57c-.13-.22-.2-.47-.2-.75,0-.25.08-.49.23-.72.15-.24.35-.45.59-.65.24-.2.51-.38.79-.54.28-.16.57-.3.85-.41-1.19-.26-2.13-.78-2.83-1.54-.7-.76-1.05-1.74-1.05-2.93,0-1.41.58-2.52,1.75-3.31,1.17-.79,2.75-1.19,4.75-1.19ZM38.44,703.63c0-.51-.16-.92-.47-1.23-.31-.31-.71-.57-1.2-.76-.49-.2-1.04-.37-1.65-.51-.61-.14-1.22-.31-1.82-.5-.49.38-.84.75-1.05,1.13s-.31.83-.31,1.36c0,.87.3,1.54.89,2.02.59.48,1.43.72,2.5.72s1.84-.22,2.35-.67.76-.97.76-1.57ZM32.45,691.64c0,.98.16,1.73.5,2.24.33.51.98.76,1.94.76s1.56-.26,1.91-.78c.35-.52.52-1.26.52-2.22,0-1.02-.18-1.78-.54-2.28-.36-.5-.99-.75-1.9-.75s-1.58.25-1.92.74c-.34.49-.51,1.25-.51,2.29Z"/>
    <path class="st3" d="M59.94,699.11c-.15.32-.39.65-.72.98-.33.33-.74.62-1.22.88s-1.04.46-1.67.62c-.63.16-1.32.24-2.05.24-1.17,0-2.21-.17-3.11-.52s-1.66-.85-2.26-1.5c-.6-.65-1.06-1.43-1.37-2.33s-.47-1.92-.47-3.06c0-2.41.63-4.25,1.9-5.52,1.26-1.26,3.02-1.9,5.26-1.9.96,0,1.86.13,2.7.4.84.26,1.54.7,2.09,1.3.56.6.94,1.4,1.16,2.38s.2,2.18-.04,3.59h-8.68c.02,1.49.4,2.68,1.15,3.56.74.89,1.84,1.33,3.3,1.33.62,0,1.27-.09,1.94-.28.67-.19,1.19-.43,1.57-.74l.54.57ZM54.1,688.61c-.38,0-.71.07-1,.2-.29.13-.54.37-.76.72-.22.35-.39.82-.52,1.41-.13.59-.23,1.34-.28,2.25h4.53c.13-1.47.05-2.6-.25-3.39-.3-.79-.87-1.19-1.72-1.19Z"/>
    <path class="st3" d="M77.03,696.25c.21.77.39,1.63.54,2.57.15.94.21,1.83.17,2.66h-12.62v-1.1l8.06-11.43h-4.7l-1.24,3.34h-.96c-.21-.81-.38-1.67-.51-2.57s-.2-1.7-.2-2.38h12.16v1.1l-8.09,11.43h4.89l1.53-3.62h.96Z"/>
    <path class="st3" d="M90.33,701.48h-7.81v-1.08c.28-.15.58-.28.88-.38.3-.1.63-.2.99-.3v-10.41l-1.87-.23v-1.08c.28-.11.64-.23,1.06-.34.42-.11.87-.21,1.34-.3.47-.08.93-.16,1.39-.23s.85-.12,1.19-.16h.96v12.73c.38.09.72.19,1.02.3.3.1.58.23.85.38v1.08ZM83.96,682.7c0-.66.22-1.18.67-1.56.45-.38,1.02-.57,1.73-.57s1.29.19,1.73.57c.45.38.67.9.67,1.56s-.22,1.15-.67,1.53c-.45.38-1.03.57-1.73.57s-1.29-.19-1.73-.57c-.45-.38-.67-.89-.67-1.53Z"/>
    <path class="st3" d="M111.74,701.48h-7.5v-1.08c.24-.13.49-.25.72-.35.24-.1.51-.21.83-.33v-6.67c0-1.19-.17-2.12-.51-2.79s-.94-1.01-1.81-1.01c-.72,0-1.33.23-1.85.69-.52.46-.91,1.09-1.17,1.89v7.88c.3.08.57.17.81.27.24.1.49.24.75.41v1.08h-7.5v-1.08c.47-.25,1.09-.47,1.87-.68v-10.41l-1.87-.23v-1.08c.24-.11.57-.22.96-.33s.83-.2,1.29-.3c.46-.09.93-.17,1.41-.24s.92-.12,1.32-.16h.96v2.91h.03c.4-.79.99-1.48,1.78-2.05s1.75-.86,2.89-.86c.74,0,1.4.09,1.98.27.58.18,1.08.5,1.49.95.41.45.72,1.06.93,1.83.22.77.33,1.73.33,2.91v6.78c.75.13,1.38.36,1.87.68v1.08Z"/>
    <path class="st3" d="M132.79,701.48h-7.5v-1.08c.24-.13.49-.25.72-.35.24-.1.51-.21.83-.33v-6.67c0-1.19-.17-2.12-.51-2.79s-.94-1.01-1.81-1.01c-.72,0-1.33.23-1.85.69-.52.46-.91,1.09-1.17,1.89v7.88c.3.08.57.17.81.27.24.1.49.24.75.41v1.08h-7.5v-1.08c.47-.25,1.09-.47,1.87-.68v-10.41l-1.87-.23v-1.08c.24-.11.57-.22.96-.33s.83-.2,1.29-.3c.46-.09.93-.17,1.41-.24s.92-.12,1.32-.16h.96v2.91h.03c.4-.79.99-1.48,1.78-2.05s1.75-.86,2.89-.86c.74,0,1.4.09,1.98.27.58.18,1.08.5,1.49.95.41.45.72,1.06.93,1.83.22.77.33,1.73.33,2.91v6.78c.75.13,1.38.36,1.87.68v1.08Z"/>
    <path class="st3" d="M149.7,699.11c-.15.32-.39.65-.72.98-.33.33-.74.62-1.22.88s-1.04.46-1.67.62c-.63.16-1.32.24-2.05.24-1.17,0-2.21-.17-3.11-.52s-1.66-.85-2.26-1.5c-.6-.65-1.06-1.43-1.37-2.33s-.47-1.92-.47-3.06c0-2.41.63-4.25,1.9-5.52,1.26-1.26,3.02-1.9,5.26-1.9.96,0,1.86.13,2.7.4.84.26,1.54.7,2.09,1.3.56.6.94,1.4,1.16,2.38s.2,2.18-.04,3.59h-8.68c.02,1.49.4,2.68,1.15,3.56.74.89,1.84,1.33,3.3,1.33.62,0,1.27-.09,1.94-.28.67-.19,1.19-.43,1.57-.74l.54.57ZM143.86,688.61c-.38,0-.71.07-1,.2-.29.13-.54.37-.76.72-.22.35-.39.82-.52,1.41-.13.59-.23,1.34-.28,2.25h4.53c.13-1.47.05-2.6-.25-3.39-.3-.79-.87-1.19-1.72-1.19Z"/>
    <path class="st3" d="M171.85,701.48h-7.5v-1.08c.24-.13.49-.25.72-.35.24-.1.51-.21.83-.33v-6.67c0-1.19-.17-2.12-.51-2.79s-.94-1.01-1.81-1.01c-.72,0-1.33.23-1.85.69-.52.46-.91,1.09-1.17,1.89v7.88c.3.08.57.17.81.27.24.1.49.24.75.41v1.08h-7.5v-1.08c.47-.25,1.09-.47,1.87-.68v-10.41l-1.87-.23v-1.08c.24-.11.57-.22.96-.33s.83-.2,1.29-.3c.46-.09.93-.17,1.41-.24s.92-.12,1.32-.16h.96v2.91h.03c.4-.79.99-1.48,1.78-2.05s1.75-.86,2.89-.86c.74,0,1.4.09,1.98.27.58.18,1.08.5,1.49.95.41.45.72,1.06.93,1.83.22.77.33,1.73.33,2.91v6.78c.75.13,1.38.36,1.87.68v1.08Z"/>
    <path class="st3" d="M191.15,701.82l-4.44-12.73c-.26-.09-.52-.19-.78-.3s-.5-.23-.72-.38v-1.08h7.16v1.05c-.26.15-.53.29-.79.41s-.54.22-.82.3l1.95,7.26.37,2.18h.06l.51-2.26,3-8.77,1.39-.17,3.22,8.97.59,2.23h.06l.45-2.21,1.7-7.23c-.21-.04-.45-.11-.72-.23-.27-.11-.55-.27-.83-.45v-1.08h5.46v1.08c-.4.26-.93.49-1.61.68l-3.93,12.39-2.66.34-2.43-6.99-.54-2.35h-.08l-.65,2.35-2.26,6.65-2.63.34Z"/>
    <path class="st3" d="M224.24,699.11c-.15.32-.39.65-.72.98-.33.33-.74.62-1.22.88s-1.04.46-1.67.62c-.63.16-1.32.24-2.05.24-1.17,0-2.21-.17-3.11-.52s-1.66-.85-2.26-1.5c-.6-.65-1.06-1.43-1.37-2.33s-.47-1.92-.47-3.06c0-2.41.63-4.25,1.9-5.52,1.26-1.26,3.02-1.9,5.26-1.9.96,0,1.86.13,2.7.4.84.26,1.54.7,2.09,1.3.56.6.94,1.4,1.16,2.38s.2,2.18-.04,3.59h-8.68c.02,1.49.4,2.68,1.15,3.56.74.89,1.84,1.33,3.3,1.33.62,0,1.27-.09,1.94-.28.67-.19,1.19-.43,1.57-.74l.54.57ZM218.4,688.61c-.38,0-.71.07-1,.2-.29.13-.54.37-.76.72-.22.35-.39.82-.52,1.41-.13.59-.23,1.34-.28,2.25h4.53c.13-1.47.05-2.6-.25-3.39-.3-.79-.87-1.19-1.72-1.19Z"/>
    <path class="st3" d="M242.26,699.11c-.15.32-.39.65-.72.98-.33.33-.74.62-1.22.88s-1.04.46-1.67.62c-.63.16-1.32.24-2.05.24-1.17,0-2.21-.17-3.11-.52s-1.66-.85-2.26-1.5c-.6-.65-1.06-1.43-1.37-2.33s-.47-1.92-.47-3.06c0-2.41.63-4.25,1.9-5.52,1.26-1.26,3.02-1.9,5.26-1.9.96,0,1.86.13,2.7.4.84.26,1.54.7,2.09,1.3.56.6.94,1.4,1.16,2.38s.2,2.18-.04,3.59h-8.68c.02,1.49.4,2.68,1.15,3.56.74.89,1.84,1.33,3.3,1.33.62,0,1.27-.09,1.94-.28.67-.19,1.19-.43,1.57-.74l.54.57ZM236.42,688.61c-.38,0-.71.07-1,.2-.29.13-.54.37-.76.72-.22.35-.39.82-.52,1.41-.13.59-.23,1.34-.28,2.25h4.53c.13-1.47.05-2.6-.25-3.39-.3-.79-.87-1.19-1.72-1.19Z"/>
    <path class="st3" d="M254.74,690.59c-.23.11-.49.3-.79.57-.3.27-.58.7-.82,1.31v7.26c.38.04.75.11,1.13.21.38.1.75.26,1.13.47v1.08h-8.2v-1.08c.34-.19.66-.33.96-.43s.6-.18.91-.26v-10.41l-1.87-.23v-1.08c.3-.13.67-.25,1.12-.37.44-.11.9-.21,1.37-.3.47-.08.93-.16,1.37-.21.44-.06.82-.1,1.12-.14h.96v3.76h.11c.15-.41.37-.85.66-1.3.29-.45.64-.87,1.03-1.25.4-.38.83-.68,1.3-.91.47-.23.96-.33,1.47-.31.21.26.39.64.54,1.12.15.48.27.94.37,1.37v1.1h-3.88Z"/>
    <path class="st3" d="M280.23,690.59c-.23.11-.49.3-.79.57-.3.27-.58.7-.82,1.31v7.26c.38.04.75.11,1.13.21.38.1.75.26,1.13.47v1.08h-8.2v-1.08c.34-.19.66-.33.96-.43s.6-.18.91-.26v-10.41l-1.87-.23v-1.08c.3-.13.67-.25,1.12-.37.44-.11.9-.21,1.37-.3.47-.08.93-.16,1.37-.21.44-.06.82-.1,1.12-.14h.96v3.76h.11c.15-.41.37-.85.66-1.3.29-.45.64-.87,1.03-1.25.4-.38.83-.68,1.3-.91.47-.23.96-.33,1.47-.31.21.26.39.64.54,1.12.15.48.27.94.37,1.37v1.1h-3.88Z"/>
    <path class="st3" d="M295.73,701.48h-7.81v-1.08c.28-.15.58-.28.88-.38.3-.1.63-.2.99-.3v-10.41l-1.87-.23v-1.08c.28-.11.64-.23,1.06-.34.42-.11.87-.21,1.34-.3.47-.08.93-.16,1.39-.23s.85-.12,1.19-.16h.96v12.73c.38.09.72.19,1.02.3.3.1.58.23.85.38v1.08ZM289.37,682.7c0-.66.22-1.18.67-1.56.45-.38,1.02-.57,1.73-.57s1.29.19,1.73.57c.45.38.67.9.67,1.56s-.22,1.15-.67,1.53c-.45.38-1.03.57-1.73.57s-1.29-.19-1.73-.57c-.45-.38-.67-.89-.67-1.53Z"/>
    <path class="st3" d="M312.17,699.19c-.13.38-.35.72-.65,1.03s-.67.59-1.09.83c-.42.25-.91.43-1.44.57-.54.13-1.1.2-1.68.2-1.25,0-2.32-.17-3.21-.52s-1.64-.85-2.22-1.5c-.58-.65-1.02-1.43-1.3-2.35-.28-.91-.42-1.93-.42-3.04,0-2.39.66-4.23,1.97-5.5,1.31-1.27,3.17-1.91,5.59-1.91.92,0,1.77.1,2.55.3.77.2,1.41.43,1.92.69-.04.32-.09.67-.16,1.06s-.14.77-.23,1.16c-.08.39-.18.76-.3,1.13s-.23.67-.34.92h-1.39l-1.19-3.37c-.13-.09-.27-.17-.42-.21-.15-.05-.38-.07-.68-.07-.49,0-.92.09-1.27.27s-.67.49-.92.92c-.25.43-.44,1.01-.57,1.73-.12.72-.18,1.6-.18,2.66,0,.77.08,1.49.25,2.14.17.65.43,1.22.78,1.7.35.48.79.86,1.32,1.13.53.27,1.15.41,1.87.41.66,0,1.24-.09,1.73-.28.49-.19.91-.41,1.25-.68l.45.59Z"/>
    <path class="st3" d="M333.55,701.48h-7.5v-1.08c.23-.13.46-.25.71-.37.24-.11.53-.22.85-.31v-5.73c0-1.63-.16-2.82-.47-3.59-.31-.77-.92-1.15-1.83-1.15-.75,0-1.4.26-1.92.78-.53.52-.91,1.12-1.13,1.8v7.88c.3.08.57.16.81.26.24.09.49.24.75.42v1.08h-7.5v-1.08c.58-.3,1.21-.53,1.87-.68v-17.2l-2.15-.23v-1.08c.28-.11.65-.23,1.09-.34s.91-.21,1.4-.3c.49-.08.98-.16,1.47-.23.49-.07.92-.12,1.3-.16h.96v9.99h.03c.19-.43.44-.84.76-1.23.32-.39.68-.73,1.09-1.02s.84-.52,1.32-.69.97-.25,1.5-.25c.75,0,1.43.09,2.02.27.59.18,1.09.5,1.48.95.4.45.7,1.06.91,1.83.21.77.31,1.73.31,2.91v6.78c.32.08.64.16.96.25.32.09.62.24.91.42v1.08Z"/>
    <path class="st3" d="M336.95,688.04c.72-.46,1.47-.79,2.26-.99v-2.29c.15-.11.52-.28,1.12-.5.59-.22,1.26-.39,2-.52h.96v3.59h3.73v1.84h-3.73v7.29c0,1.16.15,1.97.44,2.42.29.45.78.67,1.46.67.34,0,.72-.02,1.15-.07.42-.05.82-.14,1.17-.27l.2.93c-.17.17-.42.35-.75.54s-.71.37-1.13.54c-.42.17-.89.31-1.39.42-.5.11-1.02.17-1.57.17-1.23,0-2.14-.32-2.74-.96s-.91-1.67-.91-3.1v-8.59h-2.26v-1.13Z"/>
    <path class="st3" d="M359.52,701.48h-7.81v-1.08c.28-.15.58-.28.88-.38.3-.1.63-.2.99-.3v-10.41l-1.87-.23v-1.08c.28-.11.64-.23,1.06-.34.42-.11.87-.21,1.34-.3.47-.08.93-.16,1.39-.23.45-.07.85-.12,1.19-.16h.96v12.73c.38.09.72.19,1.02.3.3.1.58.23.85.38v1.08ZM353.16,682.7c0-.66.22-1.18.67-1.56.45-.38,1.03-.57,1.73-.57s1.29.19,1.73.57c.45.38.67.9.67,1.56s-.22,1.15-.67,1.53c-.45.38-1.03.57-1.73.57s-1.29-.19-1.73-.57c-.45-.38-.67-.89-.67-1.53Z"/>
    <path class="st3" d="M380.94,701.48h-7.5v-1.08c.25-.13.49-.25.72-.35.24-.1.51-.21.83-.33v-6.67c0-1.19-.17-2.12-.51-2.79s-.94-1.01-1.81-1.01c-.72,0-1.33.23-1.85.69-.52.46-.91,1.09-1.17,1.89v7.88c.3.08.57.17.81.27.24.1.49.24.75.41v1.08h-7.5v-1.08c.47-.25,1.09-.47,1.87-.68v-10.41l-1.87-.23v-1.08c.25-.11.57-.22.96-.33.4-.1.83-.2,1.29-.3.46-.09.93-.17,1.42-.24.48-.07.92-.12,1.32-.16h.96v2.91h.03c.4-.79.99-1.48,1.78-2.05.79-.58,1.75-.86,2.88-.86.74,0,1.4.09,1.98.27.58.18,1.08.5,1.49.95.41.45.72,1.06.93,1.83s.33,1.73.33,2.91v6.78c.75.13,1.38.36,1.87.68v1.08Z"/>
    <path class="st3" d="M391.57,687c1.23,0,2.24.13,3.05.38.81.25,1.42.57,1.84.95.89-.96,1.9-1.63,3.06-2.01.13.09.26.23.4.41.13.18.25.37.34.58.09.21.17.42.23.62.06.21.08.38.08.51l-.37.68h-2.97c.21.26.4.61.58,1.03.18.42.27.93.27,1.51,0,.62-.13,1.21-.4,1.75-.26.55-.67,1.03-1.2,1.46-.54.42-1.22.76-2.04,1-.82.25-1.78.37-2.87.37-.32,0-.61,0-.86-.01-.25,0-.48-.03-.67-.07-.08.11-.16.25-.24.41s-.13.32-.13.47c0,.32.23.58.68.76.45.19,1.03.36,1.73.51.7.15,1.45.32,2.25.51s1.55.44,2.25.75c.7.31,1.28.72,1.75,1.22.47.5.72,1.15.74,1.94.02.75-.17,1.42-.57,2.01-.4.58-.94,1.08-1.63,1.49s-1.5.72-2.43.93-1.93.33-2.98.33c-1.25,0-2.31-.1-3.18-.3s-1.59-.47-2.14-.81c-.55-.34-.95-.73-1.2-1.16-.25-.43-.38-.89-.38-1.36,0-.53.1-.98.31-1.36.21-.38.5-.71.88-.99s.82-.52,1.32-.71,1.05-.36,1.66-.51c-.28-.08-.56-.17-.82-.28-.26-.11-.5-.25-.71-.41-.21-.16-.38-.35-.51-.57-.13-.22-.2-.47-.2-.75,0-.25.08-.49.23-.72.15-.24.35-.45.59-.65.25-.2.51-.38.79-.54.28-.16.57-.3.85-.41-1.19-.26-2.13-.78-2.83-1.54-.7-.76-1.05-1.74-1.05-2.93,0-1.41.58-2.52,1.75-3.31,1.17-.79,2.75-1.19,4.75-1.19ZM395.14,703.63c0-.51-.16-.92-.47-1.23-.31-.31-.71-.57-1.2-.76-.49-.2-1.04-.37-1.65-.51-.61-.14-1.22-.31-1.83-.5-.49.38-.84.75-1.05,1.13-.21.38-.31.83-.31,1.36,0,.87.3,1.54.89,2.02.59.48,1.43.72,2.5.72s1.84-.22,2.35-.67c.51-.44.76-.97.76-1.57ZM389.14,691.64c0,.98.17,1.73.5,2.24.33.51.98.76,1.94.76s1.56-.26,1.91-.78c.35-.52.52-1.26.52-2.22,0-1.02-.18-1.78-.54-2.28-.36-.5-.99-.75-1.89-.75s-1.58.25-1.92.74c-.34.49-.51,1.25-.51,2.29Z"/>
    <path class="st3" d="M420.82,687c1.23,0,2.24.13,3.05.38.81.25,1.42.57,1.84.95.89-.96,1.9-1.63,3.06-2.01.13.09.26.23.4.41.13.18.25.37.34.58.09.21.17.42.23.62.06.21.08.38.08.51l-.37.68h-2.97c.21.26.4.61.58,1.03.18.42.27.93.27,1.51,0,.62-.13,1.21-.4,1.75-.26.55-.67,1.03-1.2,1.46-.54.42-1.22.76-2.04,1-.82.25-1.78.37-2.87.37-.32,0-.61,0-.86-.01-.25,0-.48-.03-.67-.07-.08.11-.16.25-.24.41s-.13.32-.13.47c0,.32.23.58.68.76.45.19,1.03.36,1.73.51.7.15,1.45.32,2.25.51s1.55.44,2.25.75c.7.31,1.28.72,1.75,1.22.47.5.72,1.15.74,1.94.02.75-.17,1.42-.57,2.01-.4.58-.94,1.08-1.63,1.49s-1.5.72-2.43.93-1.93.33-2.98.33c-1.25,0-2.31-.1-3.18-.3s-1.59-.47-2.14-.81c-.55-.34-.95-.73-1.2-1.16-.25-.43-.38-.89-.38-1.36,0-.53.1-.98.31-1.36.21-.38.5-.71.88-.99s.82-.52,1.32-.71,1.05-.36,1.66-.51c-.28-.08-.56-.17-.82-.28-.26-.11-.5-.25-.71-.41-.21-.16-.38-.35-.51-.57-.13-.22-.2-.47-.2-.75,0-.25.08-.49.23-.72.15-.24.35-.45.59-.65.25-.2.51-.38.79-.54.28-.16.57-.3.85-.41-1.19-.26-2.13-.78-2.83-1.54-.7-.76-1.05-1.74-1.05-2.93,0-1.41.58-2.52,1.75-3.31,1.17-.79,2.75-1.19,4.75-1.19ZM424.39,703.63c0-.51-.16-.92-.47-1.23-.31-.31-.71-.57-1.2-.76-.49-.2-1.04-.37-1.65-.51-.61-.14-1.22-.31-1.83-.5-.49.38-.84.75-1.05,1.13-.21.38-.31.83-.31,1.36,0,.87.3,1.54.89,2.02.59.48,1.43.72,2.5.72s1.84-.22,2.35-.67c.51-.44.76-.97.76-1.57ZM418.39,691.64c0,.98.17,1.73.5,2.24.33.51.98.76,1.94.76s1.56-.26,1.91-.78c.35-.52.52-1.26.52-2.22,0-1.02-.18-1.78-.54-2.28-.36-.5-.99-.75-1.89-.75s-1.58.25-1.92.74c-.34.49-.51,1.25-.51,2.29Z"/>
    <path class="st3" d="M445.89,699.11c-.15.32-.39.65-.72.98-.33.33-.74.62-1.22.88-.48.25-1.04.46-1.67.62-.63.16-1.32.24-2.05.24-1.17,0-2.21-.17-3.11-.52s-1.66-.85-2.26-1.5c-.6-.65-1.06-1.43-1.37-2.33s-.47-1.92-.47-3.06c0-2.41.63-4.25,1.9-5.52s3.02-1.9,5.26-1.9c.96,0,1.86.13,2.7.4.84.26,1.54.7,2.09,1.3.56.6.94,1.4,1.16,2.38.22.98.2,2.18-.04,3.59h-8.68c.02,1.49.4,2.68,1.15,3.56s1.84,1.33,3.3,1.33c.62,0,1.27-.09,1.94-.28.67-.19,1.19-.43,1.57-.74l.54.57ZM440.04,688.61c-.38,0-.71.07-1,.2-.29.13-.54.37-.76.72-.22.35-.39.82-.52,1.41-.13.59-.23,1.34-.28,2.25h4.53c.13-1.47.05-2.6-.25-3.39-.3-.79-.87-1.19-1.71-1.19Z"/>
    <path class="st3" d="M463.91,699.11c-.15.32-.39.65-.72.98-.33.33-.74.62-1.22.88-.48.25-1.04.46-1.67.62-.63.16-1.32.24-2.05.24-1.17,0-2.21-.17-3.11-.52s-1.66-.85-2.26-1.5c-.6-.65-1.06-1.43-1.37-2.33s-.47-1.92-.47-3.06c0-2.41.63-4.25,1.9-5.52s3.02-1.9,5.26-1.9c.96,0,1.86.13,2.7.4.84.26,1.54.7,2.09,1.3.56.6.94,1.4,1.16,2.38.22.98.2,2.18-.04,3.59h-8.68c.02,1.49.4,2.68,1.15,3.56s1.84,1.33,3.3,1.33c.62,0,1.27-.09,1.94-.28.67-.19,1.19-.43,1.57-.74l.54.57ZM458.06,688.61c-.38,0-.71.07-1,.2-.29.13-.54.37-.76.72-.22.35-.39.82-.52,1.41-.13.59-.23,1.34-.28,2.25h4.53c.13-1.47.05-2.6-.25-3.39-.3-.79-.87-1.19-1.71-1.19Z"/>
    <path class="st3" d="M477.26,680.21c.77,0,1.47.07,2.08.21.61.14,1.08.28,1.4.41-.06.62-.18,1.26-.37,1.92s-.36,1.21-.51,1.64h-.96l-1.25-2.69c-.49,0-.9.05-1.23.16s-.59.31-.79.61c-.2.3-.34.73-.44,1.29-.09.56-.14,1.28-.14,2.16v1.41h3v1.84h-3v10.55c.98.11,1.89.34,2.72.68v1.08h-8.66v-1.08c.58-.34,1.21-.56,1.87-.68v-10.55h-2.15v-1.13c.66-.43,1.38-.75,2.15-.96v-.99c0-1.17.17-2.14.5-2.9.33-.76.78-1.37,1.34-1.81.57-.44,1.23-.75,1.99-.92s1.58-.25,2.45-.25Z"/>
    <path class="st3" d="M481.76,688.04c.72-.46,1.47-.79,2.26-.99v-2.29c.15-.11.52-.28,1.12-.5.59-.22,1.26-.39,2-.52h.96v3.59h3.73v1.84h-3.73v7.29c0,1.16.15,1.97.44,2.42.29.45.78.67,1.46.67.34,0,.72-.02,1.15-.07.42-.05.82-.14,1.17-.27l.2.93c-.17.17-.42.35-.75.54s-.71.37-1.13.54c-.42.17-.89.31-1.39.42-.5.11-1.02.17-1.57.17-1.23,0-2.14-.32-2.74-.96s-.91-1.67-.91-3.1v-8.59h-2.26v-1.13Z"/>
    <path class="st3" d="M497.43,699.47c0-.68.22-1.23.65-1.64.43-.41,1.01-.62,1.73-.62s1.3.21,1.75.62c.45.42.68.96.68,1.64s-.23,1.22-.68,1.63c-.45.41-1.04.61-1.75.61s-1.29-.2-1.73-.61-.65-.95-.65-1.63Z"/>
  </g>
</svg>