<?xml version="1.0" encoding="UTF-8"?>
<svg id="Laag_1" xmlns="http://www.w3.org/2000/svg" version="1.1" viewBox="0 0 836.68 273.32">
  <!-- Generator: Adobe Illustrator 29.5.1, SVG Export Plug-In . SVG Version: 2.1.0 Build 141)  -->
  <defs>
    <style>
      .st0 {
        fill: #007f6c;
      }

      .st1 {
        font-family: AmericanTypewriter-Bold, 'American Typewriter';
        font-weight: 700;
      }

      .st1, .st2 {
        fill: #c30d61;
      }

      .st1, .st3 {
        font-size: 56.92px;
      }

      .st4, .st5 {
        font-size: 46.67px;
      }

      .st5, .st6, .st7 {
        fill: #0c416b;
      }

      .st5, .st7 {
        font-family: AmericanTypewriter, 'American Typewriter';
      }
    </style>
  </defs>
  <g id="po1157">
    <g>
      <path class="st0" d="M110.78,77.15c-.24,1.31-1.27,2.43-2.15,3.45-5.17,6.03-11.4,11.79-16.95,17.49-13.13,13.49-26.35,27.07-39.88,40.21-5.57,5.41-11.81,11.83-17.66,16.79-4.19,3.55-9.22,5.65-14.8,5.32-1.95-.12-4.9-.31-4.08-2.95,7.4-23.09,12.24-48.14,20.8-70.76,1.89-4.98,3.41-7.68,8.4-10.11,1.99-.34,4.15-.76,6.16-.87,17.94-1,36.81.79,54.84,0,1.64.37,4.15.1,5.3,1.45Z"/>
      <path class="st6" d="M105.85,164.18c2.23-.15,4.03,1.31,4.33,3.55.68,4.97-3.3,17.45-4.49,23.02-4.58,21.4-9.32,43.12-13.99,64.65-.67,2.9-3.33,4.51-6.15,3.26-1.86-.83-4.41-5.25-5.53-7.1-7.07-11.66-13.94-25.29-20.19-37.5-.61-1.2-4.56-8.7-4.41-9.28l45.18-38.08c1.66-1.25,3.05-2.37,5.25-2.52Z"/>
      <path class="st2" d="M96.02,153.37c-14.59,15.51-38.46-3.07-25-20.26,19.81-16.41,39.7-32.93,59.99-48.78,1.87-1.46,10.52-8.45,12.08-8.61,1.04-.11,2.09.66,2.34,1.65.45,1.75-2.54,5.84-3.55,7.51-8.97,14.84-19.23,30.12-28.93,44.55-4.71,7.01-11.41,18.07-16.95,23.95Z"/>
      <path class="st0" d="M73.13,19.82c15.87-.22,28.2,15.69,23.52,31-5.9,19.3-32.41,23.47-43.57,6.39-10.58-16.2.94-37.12,20.05-37.39Z"/>
      <path class="st6" d="M68.12,155.98c1.3,1.45,4.35,3.8,6.1,4.66,2.84,1.4,6.14,2.15,9.29,2.33l-.15,1.43c-21.09,17.82-41.74,36.32-63.6,53.22-4.22,3.27-10.62,8.56-15.1,11.02-1.4.77-2.33,1.44-3.79.18-2.76-2.39,1.74-7.71,3.31-9.85,17.09-23.34,37.84-46.1,56.65-68.2.48-.56,2.14-3.18,2.31-3.29.32-.22.65.2.82.46.61.95,1.15,3.33,1.9,4.71.53.98,1.53,2.53,2.26,3.34Z"/>
    </g>
  </g>
  <text transform="translate(143.27 139.45)"><tspan class="st1"><tspan x="0" y="0">Stiefkompas</tspan></tspan><tspan class="st5"><tspan x="0" y="40">De methode die samengestelde </tspan></tspan><tspan class="st7"><tspan class="st4" x="0" y="80">gezinnen weer richting geeft</tspan><tspan class="st3" x="636.46" y="80">.</tspan></tspan></text>
</svg>